<svg width="1200" height="495"
  xmlns="http://www.w3.org/2000/svg"
  xmlns:xlink="http://www.w3.org/1999/xlink" xml:space="preserve" overflow="hidden">
  <defs>
    <clipPath id="clip0">
      <rect x="500" y="1448" width="1200" height="495"/>
    </clipPath>
  </defs>
  <g clip-path="url(#clip0)" transform="translate(-500 -1448)">
    <path d="M1259.8 1848.59 1272.19 1863.59 1270.98 1867.21C1271.06 1874.39 1273.1 1880.39 1277.11 1885.19 1281.12 1889.99 1286.67 1892.49 1293.74 1892.67L1302.74 1890.87 1304.14 1892.02 1291.02 1894.98C1283.75 1895.01 1276.83 1894.09 1270.27 1892.21 1263.71 1890.33 1258.34 1887.3 1254.16 1883.13 1249.98 1878.96 1247.82 1873.46 1247.68 1866.62 1247.58 1859.75 1250.35 1854.06 1256.01 1849.56ZM608.665 1816.3C602.828 1816.7 597.819 1817.89 593.636 1819.87 589.454 1821.85 587.265 1824.55 587.07 1827.97 587.046 1829.08 587.289 1830.03 587.8 1830.82 588.311 1831.61 589.235 1832.02 590.572 1832.06 593.965 1831.75 597.15 1829.83 600.129 1826.29 603.108 1822.75 605.953 1819.42 608.665 1816.3ZM993.226 1789.15 987.147 1797.37 985.597 1799.18 987.786 1800.39C989.658 1801.94 990.631 1804.27 990.704 1807.37 990.619 1810.19 989.768 1812.31 988.15 1813.75 986.533 1815.18 984.66 1815.9 982.532 1815.91 981.665 1815.91 980.919 1815.86 980.294 1815.76 979.67 1815.66 979.119 1815.52 978.641 1815.33 978.345 1815.81 978.109 1816.35 977.935 1816.95 977.761 1817.56 977.672 1818.25 977.668 1819.02 977.676 1823.14 978.779 1826.33 980.976 1828.6 983.172 1830.87 986.415 1832.02 990.704 1832.06 996.245 1831.93 1000.39 1830.29 1003.13 1827.14 1005.88 1824 1007.25 1820.12 1007.24 1815.52 1007.04 1811.97 1005.65 1808.46 1003.06 1804.98 1000.46 1801.5 997.874 1798 995.284 1794.48ZM1281.01 1766.37C1282.76 1766.39 1284.07 1766.88 1284.95 1767.85 1285.82 1768.82 1286.26 1770.14 1286.26 1771.81 1285.96 1775.37 1283.84 1779.37 1279.91 1783.81 1275.98 1788.25 1272.05 1793.14 1268.11 1798.49 1264.18 1803.83 1262.07 1809.65 1261.76 1815.93 1261.78 1821.46 1263.26 1825.89 1266.21 1829.23 1269.16 1832.56 1273.5 1834.28 1279.24 1834.36 1284.38 1834.31 1289.48 1832.77 1294.53 1829.74 1299.59 1826.7 1304.73 1822.49 1309.95 1817.09L1314.77 1811.65 1313.97 1813.98C1314.02 1820.02 1315.63 1824.9 1318.8 1828.62 1321.98 1832.34 1326.45 1834.26 1332.23 1834.36 1338.52 1834.32 1344.6 1832.81 1350.45 1829.86 1356.31 1826.9 1361.52 1822.77 1366.06 1817.48L1366.45 1817.87 1336.69 1861.18C1330.37 1870.57 1323.6 1878.13 1316.39 1883.85 1312.79 1886.71 1309.1 1888.88 1305.32 1890.35L1302.74 1890.87 1277.59 1870.13 1272.19 1863.59 1276.62 1850.35C1280.3 1846.67 1285.3 1844.84 1291.6 1844.85L1295.88 1844.85 1295.88 1842.55 1283.43 1842.55 1259.8 1848.59 1247.19 1833.31 1235.25 1811.33 1249.71 1792.43C1255.78 1785.19 1261.63 1779.09 1267.26 1774.12 1272.89 1769.16 1277.47 1766.57 1281.01 1766.37ZM1375.98 1762.09C1378.56 1762.12 1380.65 1762.99 1382.26 1764.72 1383.86 1766.44 1384.69 1768.87 1384.74 1772 1384.66 1776.57 1383.43 1781.9 1381.04 1788 1378.65 1794.09 1375.53 1800.08 1371.68 1805.94 1367.83 1811.81 1363.67 1816.69 1359.21 1820.57 1354.76 1824.46 1350.43 1826.47 1346.22 1826.62 1343.38 1826.52 1341.48 1825.5 1340.53 1823.58 1339.58 1821.66 1339.15 1819.43 1339.22 1816.9 1339.37 1809.98 1341.34 1802.31 1345.12 1793.88 1348.9 1785.45 1353.59 1778.12 1359.19 1771.9 1364.79 1765.67 1370.38 1762.4 1375.98 1762.09ZM1207.45 1721.8 1209.55 1742.65 1206.57 1741.43C1204.02 1738.89 1202.7 1735.68 1202.61 1731.8 1202.7 1727.92 1204.02 1724.71 1206.57 1722.16ZM979.766 1718.21C983.646 1718.3 986.859 1719.62 989.405 1722.16 991.95 1724.71 993.269 1727.92 993.362 1731.8 993.269 1735.68 991.95 1738.89 989.405 1741.43 986.859 1743.97 983.646 1745.29 979.766 1745.38 975.885 1745.29 972.672 1743.97 970.127 1741.43 967.582 1738.89 966.263 1735.68 966.169 1731.8 966.263 1727.92 967.582 1724.71 970.127 1722.16 972.672 1719.62 975.885 1718.3 979.766 1718.21ZM859.065 1694.9C843.612 1720.04 831.021 1740.51 821.29 1756.31 811.56 1772.11 804.095 1784.49 798.897 1793.46 793.698 1802.41 790.17 1809.2 788.312 1813.81 786.455 1818.42 785.672 1822.11 785.966 1824.86 786.172 1827.12 786.926 1828.88 788.227 1830.14 789.528 1831.4 791.302 1832.04 793.551 1832.06 800.05 1831.79 806.223 1828.8 812.073 1823.1 817.922 1817.4 822.972 1810.58 827.222 1802.66 831.472 1794.73 834.447 1787.3 836.146 1780.37 835.843 1779.39 835.576 1778.33 835.345 1777.19 835.114 1776.04 834.993 1774.83 834.981 1773.56 835.005 1770.01 836.122 1766.86 838.331 1764.12 840.54 1761.38 843.697 1759.93 847.8 1759.79 851.546 1759.81 854.541 1761.12 856.782 1763.71 859.024 1766.3 860.173 1770.04 860.23 1774.92 860.233 1776.12 860.129 1777.61 859.914 1779.4 859.699 1781.18 859.351 1783.06 858.87 1785.04 860.214 1786.56 861.996 1787.89 864.215 1789.05 866.434 1790.2 869.189 1790.81 872.477 1790.87 874.462 1790.81 876.313 1790.5 878.03 1789.94L879.708 1789.09 882.245 1784.35C887.205 1775.58 893.917 1764.15 902.379 1750.06 910.842 1735.97 921.387 1718.23 934.016 1696.83L962.593 1694.9C945.411 1723.28 931.433 1746.21 920.659 1763.69 909.885 1781.17 901.984 1794.65 896.955 1804.12 891.927 1813.59 889.441 1820.51 889.496 1824.87 889.532 1826.33 889.945 1827.44 890.735 1828.19 891.525 1828.95 892.473 1829.33 893.578 1829.34 897.719 1829.08 902.982 1826.27 909.369 1820.89 912.562 1818.2 915.755 1815.25 918.949 1812.04L924.337 1806.19 929.37 1795.16C934.234 1786.3 940.532 1775.55 948.265 1762.89L976.076 1762.12C970.402 1771 965.051 1779.45 960.023 1787.46 954.995 1795.47 950.895 1802.55 947.724 1808.71 944.553 1814.86 942.917 1819.6 942.816 1822.92 942.796 1824.81 943.128 1826.34 943.814 1827.51 944.499 1828.69 945.658 1829.3 947.292 1829.34 951.21 1829.18 955.583 1827.19 960.409 1823.38L966.625 1817.94 965.639 1813.58C965.772 1808.77 967.3 1805 970.223 1802.25 973.147 1799.51 976.666 1798.11 980.781 1798.06L983.796 1798.51 988.081 1793.26 992.509 1787.3 991.106 1783.66C991.17 1777.23 994.004 1771.69 999.605 1767.06 1005.21 1762.43 1013.19 1760 1023.56 1759.79 1031.17 1759.8 1037.29 1761.07 1041.9 1763.59 1046.52 1766.1 1048.89 1769.75 1049.02 1774.53 1048.92 1778.19 1047.7 1781.13 1045.35 1783.35 1043 1785.57 1040.08 1786.71 1036.59 1786.77 1035.04 1786.77 1033.58 1786.58 1032.2 1786.19 1030.82 1785.8 1029.5 1785.22 1028.23 1784.44 1029.12 1783.09 1029.83 1781.62 1030.35 1780.02 1030.87 1778.42 1031.14 1776.66 1031.15 1774.72 1031.17 1771.39 1030.41 1768.49 1028.87 1766 1027.33 1763.52 1024.91 1762.22 1021.62 1762.09 1018.58 1762.14 1016.23 1763.16 1014.58 1765.18 1012.93 1767.19 1012.1 1769.92 1012.08 1773.36 1012.31 1777.63 1013.9 1781.56 1016.87 1785.15 1019.84 1788.74 1022.8 1792.43 1025.77 1796.24 1028.73 1800.04 1030.33 1804.4 1030.55 1809.32 1030.55 1813.65 1029.53 1817.37 1027.49 1820.47 1025.45 1823.57 1022.39 1826.26 1018.31 1828.56L1018.7 1828.95C1026.2 1826.77 1033.45 1823.18 1040.46 1818.16 1043.96 1815.66 1047.33 1812.95 1050.58 1810.05L1053.71 1806.92 1078.55 1764.51C1091.62 1741.94 1104.75 1719.38 1117.94 1696.83L1145.72 1694.9C1135.02 1712.92 1124.18 1731.06 1113.2 1749.3 1102.22 1767.55 1091.23 1784.96 1080.22 1801.54L1080.61 1801.93C1084.62 1796.4 1089.46 1790.39 1095.13 1783.92 1100.8 1777.45 1106.98 1771.87 1113.66 1767.17 1120.34 1762.47 1127.21 1760.01 1134.26 1759.79 1138.66 1759.74 1142.39 1760.89 1145.43 1763.22 1148.47 1765.56 1150.06 1769.33 1150.19 1774.53 1149.87 1780.75 1147.65 1786.97 1143.54 1793.19 1139.42 1799.41 1135.31 1805.24 1131.19 1810.68 1127.07 1816.12 1124.85 1820.79 1124.52 1824.67 1124.53 1826.06 1124.91 1827.17 1125.65 1828.03 1126.39 1828.88 1127.45 1829.31 1128.83 1829.34 1132.9 1829.13 1137.52 1826.88 1142.67 1822.59 1147.82 1818.3 1152.93 1813.21 1157.99 1807.3L1163.2 1800.88 1165.81 1795.16C1170.68 1786.3 1176.97 1775.55 1184.71 1762.89L1212.52 1762.12C1206.84 1771 1201.49 1779.45 1196.46 1787.46 1191.44 1795.47 1187.34 1802.55 1184.17 1808.71 1181 1814.86 1179.36 1819.6 1179.26 1822.92 1179.24 1824.81 1179.57 1826.34 1180.26 1827.51 1180.94 1828.69 1182.1 1829.3 1183.73 1829.34 1187.65 1829.18 1192.03 1827.19 1196.85 1823.38 1199.26 1821.48 1201.68 1819.37 1204.09 1817.04L1207.52 1813.43 1222.98 1787.02 1224.23 1791.05 1235.25 1811.33 1233.33 1813.84C1228.48 1820.87 1225.06 1826.55 1223.08 1830.88L1196.64 1832.03 1204.11 1819.27 1199.29 1823.81C1196.53 1826.13 1193.86 1828.07 1191.28 1829.64 1186.11 1832.78 1180.49 1834.35 1174.4 1834.36 1169.14 1834.31 1165.15 1832.77 1162.41 1829.74 1159.68 1826.7 1158.3 1822.49 1158.29 1817.09 1158.36 1814.21 1159.03 1810.94 1160.28 1807.28L1160.52 1806.76 1154.35 1814.16C1149.11 1819.87 1143.6 1824.63 1137.81 1828.43 1132.03 1832.24 1126.11 1834.22 1120.06 1834.36 1115 1834.19 1111.18 1832.4 1108.6 1828.98 1106.02 1825.57 1104.73 1821.54 1104.72 1816.9 1105.01 1810.42 1107.02 1804.42 1110.77 1798.88 1114.51 1793.35 1118.26 1788.28 1122 1783.67 1125.74 1779.07 1127.76 1774.92 1128.05 1771.22 1128.03 1769.66 1127.63 1768.46 1126.83 1767.63 1126.04 1766.8 1124.95 1766.37 1123.58 1766.37 1119.97 1766.53 1115.48 1768.85 1110.12 1773.33 1104.76 1777.81 1099.18 1783.48 1093.37 1790.32 1087.56 1797.16 1082.19 1804.21 1077.24 1811.46 1072.29 1818.71 1068.43 1825.18 1065.64 1830.88L1039.01 1832.03 1050.03 1813.22 1043.58 1818.78C1039.15 1821.94 1034.41 1824.7 1029.35 1827.07 1019.24 1831.81 1007.26 1834.24 993.428 1834.36 985.375 1834.41 978.774 1832.77 973.623 1829.44 971.048 1827.78 969.095 1825.62 967.765 1822.98L967.055 1819.84 962.851 1823.81C960.088 1826.13 957.415 1828.07 954.833 1829.64 949.67 1832.78 944.046 1834.35 937.962 1834.36 932.703 1834.31 928.706 1832.77 925.971 1829.74 923.236 1826.7 921.86 1822.49 921.844 1817.09L923.065 1811.1 914.347 1819.7C911.253 1822.42 908.048 1824.92 904.732 1827.2 898.101 1831.76 891.469 1834.15 884.836 1834.36 879.398 1834.28 875.321 1832.9 872.602 1830.25 869.884 1827.59 868.524 1824.18 868.524 1820.01 868.469 1815.9 869.502 1811.12 871.623 1805.68 872.683 1802.96 874.099 1799.82 875.869 1796.26L878.057 1792.18 872.089 1793.18C869.237 1793.13 866.629 1792.55 864.264 1791.44 861.899 1790.33 859.971 1788.97 858.481 1787.37 855.635 1796.51 850.925 1804.6 844.355 1811.64 837.784 1818.68 830.122 1824.2 821.367 1828.22 812.612 1832.24 803.535 1834.29 794.135 1834.36 785.792 1834.3 779.259 1832.1 774.537 1827.74 769.815 1823.39 767.411 1817.24 767.327 1809.31 767.294 1807.72 767.511 1805.94 767.976 1803.99L768.035 1803.82 758.936 1814.07C753.405 1819.78 747.675 1824.55 741.745 1828.39 735.814 1832.22 729.914 1834.21 724.044 1834.36 718.352 1834.2 714.202 1832.49 711.592 1829.25 708.983 1826.01 707.696 1822.21 707.733 1817.87 707.757 1816.27 707.951 1814.7 708.316 1813.16 708.68 1811.61 709.068 1810.33 709.481 1809.32L709.093 1808.93C703.447 1815.69 697.425 1821.55 691.027 1826.53 684.628 1831.51 677.878 1834.12 670.777 1834.36 665.441 1834.27 661.452 1832.67 658.81 1829.57 656.169 1826.46 654.85 1822.44 654.854 1817.48 654.982 1814.8 655.565 1811.86 656.605 1808.64L658.942 1803.18 646.73 1810.03C642.228 1812.04 637.576 1813.61 632.772 1814.76 626.169 1820.25 618.822 1824.85 610.729 1828.57 602.637 1832.28 595.529 1834.21 589.405 1834.36 586.626 1834.46 584.03 1834.07 581.618 1833.18 579.206 1832.29 577.921 1830.29 577.763 1827.19 577.973 1823.79 580.015 1821.17 583.887 1819.31 587.759 1817.46 592.205 1816.15 597.223 1815.38 602.242 1814.61 606.574 1814.14 610.221 1813.99 612.738 1810.32 615.534 1805.51 618.61 1799.53 621.686 1793.56 623.364 1786.84 623.643 1779.39 623.753 1777.34 623.34 1775.16 622.403 1772.85 621.467 1770.54 619.352 1769.28 616.057 1769.09 611.742 1769.41 606.885 1772.59 601.485 1778.63 596.085 1784.68 590.74 1791.66 585.451 1799.58 580.162 1807.5 575.525 1814.43 571.542 1820.38 563.45 1832.29 555.868 1844.46 548.797 1856.88 541.725 1869.31 534.726 1881.62 527.801 1893.82L500 1894.98C517.639 1867.08 535.046 1838.91 552.221 1810.47 569.397 1782.04 586.655 1753.49 603.996 1724.82L631.801 1722.87 583.193 1795.33 583.58 1795.72C587.147 1790.93 591.244 1785.78 595.871 1780.27 600.499 1774.76 605.634 1770.01 611.278 1766.03 616.921 1762.06 623.05 1759.97 629.664 1759.79 635.394 1759.97 640.007 1762.08 643.503 1766.11 646.999 1770.15 648.796 1775.03 648.893 1780.75 648.763 1787.36 647.371 1793.23 644.717 1798.37 642.062 1803.5 638.922 1807.86 635.297 1811.46L635.297 1811.85C644.407 1809.19 652.658 1805.18 660.048 1799.82L660.571 1799.38 661.091 1798.17C664.994 1790.65 669.188 1783.46 673.675 1776.62 678.161 1769.77 681.407 1764.67 683.414 1761.33L711.423 1760.56 704.62 1771.03C696.425 1783.29 690.247 1792.78 686.087 1799.49 681.927 1806.19 679.15 1811.17 677.757 1814.42 676.364 1817.67 675.72 1820.25 675.826 1822.15 675.85 1823.83 676.337 1825.18 677.285 1826.2 678.233 1827.23 679.498 1827.75 681.079 1827.78 684.612 1827.74 689.325 1825.15 695.219 1820.02 701.113 1814.9 707.61 1807.5 714.71 1797.84 721.81 1788.18 728.938 1776.53 736.092 1762.89L764.281 1762.12C761.762 1766.3 757.708 1772.42 752.12 1780.48 746.533 1788.53 741.313 1796.68 736.459 1804.94 731.607 1813.19 729.022 1819.7 728.705 1824.48 728.725 1826.3 729.122 1827.57 729.896 1828.29 730.669 1829.02 731.698 1829.37 732.982 1829.34 736.33 1829.18 740.399 1827.23 745.187 1823.49 749.975 1819.75 754.931 1815.15 760.053 1809.68L769.784 1798.6 770.119 1797.61C772.046 1793 775.357 1786.72 780.054 1778.78 784.751 1770.85 791.223 1760.29 799.469 1747.1 807.716 1733.92 818.127 1717.16 830.702 1696.83ZM1107.38 1624.03C1104.08 1624.13 1100.8 1625.56 1097.54 1628.31 1094.27 1631.05 1091.29 1634.48 1088.59 1638.58 1085.88 1642.68 1083.71 1646.83 1082.08 1651.01 1080.45 1655.19 1079.62 1658.77 1079.57 1661.75 1079.5 1664.53 1079.96 1666.91 1080.94 1668.88 1081.92 1670.85 1083.83 1671.87 1086.67 1671.96 1089.74 1671.63 1092.88 1669.94 1096.09 1666.87 1099.3 1663.81 1102.28 1660.09 1105.04 1655.71 1107.79 1651.32 1110.02 1646.99 1111.72 1642.7 1113.42 1638.42 1114.3 1634.89 1114.35 1632.11 1114.39 1629.54 1113.91 1627.55 1112.89 1626.15 1111.87 1624.75 1110.03 1624.04 1107.38 1624.03ZM781.62 1624.03C778.315 1624.13 775.033 1625.56 771.771 1628.31 768.509 1631.05 765.526 1634.48 762.822 1638.58 760.118 1642.68 757.95 1646.83 756.319 1651.01 754.687 1655.19 753.851 1658.77 753.808 1661.75 753.74 1664.53 754.195 1666.91 755.175 1668.88 756.154 1670.85 758.065 1671.87 760.907 1671.96 763.974 1671.63 767.113 1669.94 770.323 1666.87 773.533 1663.81 776.515 1660.09 779.271 1655.71 782.026 1651.32 784.254 1646.99 785.955 1642.7 787.657 1638.42 788.533 1634.89 788.582 1632.11 788.629 1629.54 788.143 1627.55 787.123 1626.15 786.103 1624.75 784.269 1624.04 781.62 1624.03ZM962.05 1573.84C956.311 1574.05 950.7 1576.32 945.217 1580.66 939.734 1584.99 934.765 1590.12 930.307 1596.05 925.849 1601.98 922.288 1607.43 919.622 1612.42 923.909 1612.45 928.896 1612.01 934.586 1611.09 940.276 1610.17 945.854 1608.55 951.319 1606.25 956.785 1603.94 961.325 1600.73 964.939 1596.62 968.554 1592.51 970.429 1587.28 970.564 1580.93 970.6 1579.02 969.961 1577.38 968.648 1576 967.336 1574.63 965.137 1573.9 962.05 1573.84ZM772.897 1573.84C767.157 1574.05 761.546 1576.32 756.063 1580.66 750.581 1584.99 745.611 1590.12 741.153 1596.05 736.695 1601.98 733.134 1607.43 730.469 1612.42 734.755 1612.45 739.743 1612.01 745.432 1611.09 751.122 1610.17 756.7 1608.55 762.165 1606.25 767.631 1603.94 772.171 1600.73 775.786 1596.62 779.4 1592.51 781.275 1587.28 781.411 1580.93 781.446 1579.02 780.808 1577.38 779.495 1576 778.182 1574.63 775.983 1573.9 772.897 1573.84ZM964.037 1572.16C968.171 1572.07 972.028 1572.91 975.608 1574.66 979.188 1576.42 981.095 1579.6 981.328 1584.19 981.138 1589.81 978.699 1594.54 974.01 1598.38 969.321 1602.22 963.522 1605.3 956.612 1607.6 949.703 1609.91 942.821 1611.58 935.969 1612.6 929.116 1613.62 923.431 1614.12 918.913 1614.1 914.749 1622.59 910.228 1630.59 905.351 1638.12 900.473 1645.64 894.683 1652.26 887.979 1657.97 881.274 1663.68 873.1 1668.06 863.456 1671.11L863.456 1671.39C867.459 1671.3 871.919 1671.49 876.834 1671.96 881.749 1672.43 886.082 1673.76 889.83 1675.93 893.579 1678.1 895.705 1681.69 896.209 1686.7 903.821 1678.55 912.223 1670.08 921.414 1661.29L929.554 1653.67 930.79 1651.08C934.602 1644.22 939.844 1635.4 946.516 1624.61L961.561 1624.04C953.988 1635.43 947.914 1644.79 943.339 1652.14 938.763 1659.49 936.415 1664.96 936.294 1668.56 936.311 1669.72 936.631 1670.66 937.252 1671.39 937.873 1672.13 938.689 1672.51 939.701 1672.53 942.144 1672.45 945.13 1671.14 948.66 1668.58 952.19 1666.02 955.805 1662.67 959.506 1658.51 963.208 1654.36 966.536 1649.86 969.492 1645.02L981.691 1625.17 996.303 1624.04C988.716 1636.24 982.574 1646 977.878 1653.31 973.182 1660.63 970.764 1666.28 970.625 1670.26 970.631 1671.26 970.868 1672.03 971.334 1672.56 971.802 1673.1 972.464 1673.37 973.321 1673.38 975.774 1673.23 978.848 1671.79 982.542 1669.04 986.236 1666.29 989.877 1663.1 993.466 1659.48L998.646 1653.78 1001.12 1649.71C1006.2 1641.46 1011.19 1633.09 1016.11 1624.61L1032.27 1624.04 1013.84 1649.84 1014.12 1650.12C1015.99 1647.64 1018.78 1644.23 1022.51 1639.89 1026.23 1635.56 1030.47 1631.61 1035.24 1628.03 1040 1624.46 1044.88 1622.56 1049.87 1622.34 1052.99 1622.4 1055.35 1623.27 1056.95 1624.96 1058.55 1626.64 1059.35 1628.79 1059.36 1631.4 1059.26 1634.61 1058.24 1637.9 1056.3 1641.27 1054.36 1644.64 1052.12 1647.99 1049.57 1651.33 1047.02 1654.66 1044.78 1657.87 1042.84 1660.96 1040.9 1664.05 1039.88 1666.91 1039.78 1669.55 1039.78 1670.7 1040.07 1671.62 1040.67 1672.32 1041.27 1673.01 1042.2 1673.36 1043.48 1673.38 1044.81 1673.47 1047.02 1672.47 1050.11 1670.37 1053.21 1668.26 1057.33 1664.49 1062.48 1659.06L1069.67 1650.9 1072.47 1643.02C1076.63 1637.11 1081.77 1632.22 1087.88 1628.35 1094 1624.49 1100.08 1622.48 1106.11 1622.34 1109.33 1622.34 1111.93 1623.05 1113.89 1624.5 1115.86 1625.94 1117.42 1628.15 1118.59 1631.12L1122.13 1625.46 1136.89 1624.61C1134.92 1628.15 1131.95 1632.8 1127.97 1638.56 1123.99 1644.33 1120.3 1650.1 1116.91 1655.87 1113.51 1661.64 1111.71 1666.29 1111.49 1669.83 1111.51 1671.1 1111.83 1672.01 1112.47 1672.56 1113.1 1673.12 1113.96 1673.39 1115.04 1673.38 1117.39 1673.32 1120.46 1671.99 1124.26 1669.39 1128.06 1666.79 1132.13 1663.3 1136.46 1658.91 1140.14 1655.12 1143.74 1651.12 1147.28 1646.91 1150.81 1642.71 1153.5 1639.38 1155.33 1636.93L1156.32 1637.5C1153.87 1640.78 1151.01 1644.43 1147.74 1648.45 1144.47 1652.48 1140.62 1656.77 1136.18 1661.33 1131.7 1665.94 1127.25 1669.65 1122.81 1672.45 1118.37 1675.25 1113.98 1676.69 1109.65 1676.76 1106.65 1676.71 1104.33 1675.94 1102.67 1674.43 1101.02 1672.93 1100.18 1671.02 1100.16 1668.7 1100.16 1667.97 1100.2 1667.27 1100.28 1666.59 1100.37 1665.91 1100.52 1665.39 1100.73 1665.01L1100.44 1665.01C1097.51 1668.36 1094.18 1671.13 1090.47 1673.33 1086.76 1675.54 1082.79 1676.68 1078.58 1676.76 1074.03 1676.62 1070.77 1675.04 1068.82 1672.02 1066.87 1669.01 1065.92 1665.44 1065.97 1661.33L1068.32 1654.7 1062.2 1661.61C1057.35 1666.73 1053.16 1670.41 1049.62 1672.64 1046.08 1674.88 1042.51 1675.96 1038.93 1675.91 1035.33 1675.83 1032.68 1674.84 1030.98 1672.95 1029.28 1671.05 1028.44 1668.79 1028.45 1666.15 1028.55 1662.93 1029.57 1659.63 1031.51 1656.24 1033.45 1652.84 1035.69 1649.51 1038.24 1646.22 1040.79 1642.94 1043.03 1639.84 1044.97 1636.95 1046.91 1634.05 1047.93 1631.5 1048.03 1629.27 1048.02 1628.26 1047.68 1627.42 1047 1626.76 1046.32 1626.09 1045.33 1625.75 1044.05 1625.73 1041.16 1625.87 1037.64 1627.73 1033.49 1631.31 1029.34 1634.89 1025.06 1639.33 1020.66 1644.64 1016.26 1649.95 1012.24 1655.27 1008.6 1660.6 1004.97 1665.93 1002.22 1670.43 1000.36 1674.07L986.032 1674.5 994.343 1660.85 988.003 1666.9C985.781 1668.81 983.63 1670.44 981.549 1671.79 977.388 1674.5 973.369 1675.88 969.492 1675.91 966.624 1675.86 964.358 1675.01 962.694 1673.37 961.03 1671.73 960.18 1669.6 960.145 1667 960.163 1665.21 960.34 1663.61 960.676 1662.21 961.012 1660.81 961.402 1659.71 961.844 1658.91L961.561 1658.63C959.298 1661.12 956.791 1663.69 954.039 1666.33 951.288 1668.97 948.244 1671.2 944.908 1673.04 941.573 1674.88 937.898 1675.83 933.886 1675.91 930.973 1675.84 928.76 1674.93 927.246 1673.18 925.732 1671.42 924.971 1669.27 924.962 1666.71 924.999 1664.93 925.503 1662.74 926.474 1660.13L927.922 1657.1 912.002 1672.25C905.857 1678.28 900.593 1683.76 896.209 1688.68 895.445 1692.19 893.927 1695.16 891.658 1697.61 889.389 1700.05 886.703 1701.33 883.6 1701.43 883.036 1701.46 882.392 1701.4 881.668 1701.26 880.944 1701.11 880.548 1700.69 880.479 1700.02 880.639 1699.12 881.278 1698.22 882.395 1697.32 883.512 1696.43 884.15 1694.11 884.31 1690.38 884.196 1685.35 882.879 1681.56 880.359 1679.02 877.839 1676.49 874.798 1674.8 871.237 1673.97 867.677 1673.13 864.279 1672.74 861.044 1672.81 858.325 1673.03 854.435 1673.93 849.376 1675.5 844.316 1677.06 839.504 1677.96 834.941 1678.18 833.156 1678.24 831.548 1678.12 830.117 1677.83 828.687 1677.53 827.931 1676.71 827.848 1675.35 827.73 1674.14 828.375 1673.2 829.781 1672.55 831.187 1671.89 834.06 1671.43 838.398 1671.18 842.736 1670.93 849.245 1670.82 857.923 1670.83 863.743 1670.68 869.25 1667.92 874.443 1662.55 879.636 1657.18 884.774 1650.1 889.858 1641.29 894.941 1632.49 900.228 1622.87 905.719 1612.42 902.266 1611.6 898.814 1610.35 895.36 1608.68 891.905 1607 889.011 1604.71 886.676 1601.79 884.341 1598.87 883.127 1595.13 883.033 1590.58 883.056 1585.74 884.496 1581.86 887.352 1578.94 890.208 1576.01 894.344 1574.5 899.759 1574.42 901.199 1574.42 902.576 1574.54 903.892 1574.77 905.207 1575.01 906.336 1575.41 907.279 1575.97L906.712 1577.24C905.665 1576.88 904.601 1576.61 903.519 1576.41 902.437 1576.21 901.231 1576.11 899.901 1576.11 894.612 1576.25 890.751 1577.74 888.319 1580.59 885.885 1583.45 884.686 1586.82 884.718 1590.72 884.898 1596.01 887.092 1600.39 891.298 1603.87 895.505 1607.35 900.641 1609.68 906.709 1610.86 910.187 1604 914.868 1597.65 920.752 1591.81 926.637 1585.97 933.294 1581.26 940.723 1577.68 948.153 1574.1 955.924 1572.26 964.037 1572.16ZM774.883 1572.16C779.017 1572.07 782.874 1572.91 786.455 1574.66 790.035 1576.42 791.942 1579.6 792.175 1584.19 791.985 1589.81 789.545 1594.54 784.857 1598.38 780.168 1602.22 774.368 1605.3 767.459 1607.6 760.549 1609.91 753.668 1611.58 746.815 1612.6 739.962 1613.62 734.277 1614.12 729.759 1614.1 725.595 1622.59 721.074 1630.59 716.197 1638.12 711.319 1645.64 705.529 1652.26 698.825 1657.97 692.121 1663.68 683.946 1668.06 674.302 1671.11L674.302 1671.39C678.306 1671.3 682.765 1671.49 687.68 1671.96 692.595 1672.43 696.928 1673.76 700.676 1675.93 704.425 1678.1 706.552 1681.69 707.055 1686.7 714.668 1678.55 723.069 1670.08 732.26 1661.29L744.177 1650.14 746.703 1643.02C750.865 1637.11 756.004 1632.22 762.12 1628.35 768.236 1624.49 774.311 1622.48 780.345 1622.34 783.569 1622.34 786.164 1623.05 788.129 1624.5 790.094 1625.94 791.658 1628.15 792.82 1631.12L796.367 1625.46 811.121 1624.61C809.155 1628.15 806.183 1632.8 802.205 1638.56 798.226 1644.33 794.54 1650.1 791.145 1655.87 787.749 1661.64 785.944 1666.29 785.728 1669.83 785.742 1671.1 786.067 1672.01 786.703 1672.56 787.338 1673.12 788.195 1673.39 789.274 1673.38 791.621 1673.32 794.694 1671.99 798.495 1669.39 802.296 1666.79 806.363 1663.3 810.695 1658.91 814.373 1655.12 817.978 1651.12 821.513 1646.91 825.048 1642.71 827.731 1639.38 829.564 1636.93L830.557 1637.5C828.104 1640.78 825.243 1644.43 821.974 1648.45 818.705 1652.48 814.851 1656.77 810.412 1661.33 805.937 1665.94 801.48 1669.65 797.042 1672.45 792.603 1675.25 788.218 1676.69 783.886 1676.76 780.888 1676.71 778.562 1675.94 776.91 1674.43 775.258 1672.93 774.42 1671.02 774.396 1668.7 774.393 1667.97 774.434 1667.27 774.52 1666.59 774.606 1665.91 774.753 1665.39 774.963 1665.01L774.679 1665.01C771.745 1668.36 768.42 1671.13 764.706 1673.33 760.99 1675.54 757.027 1676.68 752.816 1676.76 748.261 1676.62 745.009 1675.04 743.058 1672.02 741.107 1669.01 740.156 1665.44 740.207 1661.33L743.177 1652.96 741.637 1654.37C735.256 1660.26 728.993 1666.22 722.848 1672.25 716.703 1678.28 711.439 1683.76 707.055 1688.68 706.291 1692.19 704.774 1695.16 702.504 1697.61 700.235 1700.05 697.549 1701.33 694.447 1701.43 693.882 1701.46 693.238 1701.4 692.514 1701.26 691.79 1701.11 691.394 1700.69 691.326 1700.02 691.486 1699.12 692.124 1698.22 693.241 1697.32 694.359 1696.43 694.997 1694.11 695.156 1690.38 695.042 1685.35 693.725 1681.56 691.205 1679.02 688.685 1676.49 685.644 1674.8 682.084 1673.97 678.523 1673.13 675.125 1672.74 671.891 1672.81 669.171 1673.03 665.282 1673.93 660.222 1675.5 655.162 1677.06 650.351 1677.96 645.787 1678.18 644.002 1678.24 642.394 1678.12 640.964 1677.83 639.533 1677.53 638.777 1676.71 638.694 1675.35 638.577 1674.14 639.221 1673.2 640.628 1672.55 642.034 1671.89 644.906 1671.43 649.245 1671.18 653.583 1670.93 660.091 1670.82 668.77 1670.83 674.59 1670.68 680.097 1667.92 685.29 1662.55 690.483 1657.18 695.621 1650.1 700.704 1641.29 705.787 1632.49 711.074 1622.87 716.565 1612.42 713.113 1611.6 709.66 1610.35 706.206 1608.68 702.752 1607 699.857 1604.71 697.522 1601.79 695.187 1598.87 693.973 1595.13 693.88 1590.58 693.902 1585.74 695.342 1581.86 698.198 1578.94 701.055 1576.01 705.19 1574.5 710.605 1574.42 712.045 1574.42 713.422 1574.54 714.738 1574.77 716.054 1575.01 717.183 1575.41 718.125 1575.97L717.558 1577.24C716.511 1576.88 715.447 1576.61 714.366 1576.41 713.283 1576.21 712.077 1576.11 710.747 1576.11 705.458 1576.25 701.598 1577.74 699.165 1580.59 696.732 1583.45 695.532 1586.82 695.564 1590.72 695.745 1596.01 697.938 1600.39 702.144 1603.87 706.351 1607.35 711.488 1609.68 717.556 1610.86 721.033 1604 725.714 1597.65 731.598 1591.81 737.483 1585.97 744.14 1581.26 751.57 1577.68 759 1574.1 766.77 1572.26 774.883 1572.16ZM1419.59 1448 1412.38 1453.94C1376.34 1489.96 1354.05 1539.72 1354.05 1594.68 1354.05 1704.61 1443.22 1793.72 1553.22 1793.72 1608.22 1793.72 1658.01 1771.44 1694.05 1735.42L1700 1728.22 1697.54 1744.34C1674.32 1857.72 1573.94 1943 1453.63 1943 1402.07 1943 1354.17 1927.34 1314.43 1900.51L1304.14 1892.02 1325.28 1887.26C1336.48 1882.17 1346.87 1874.86 1356.43 1865.34 1365.99 1855.82 1374.13 1844.4 1380.85 1831.07 1388.91 1828.57 1396.72 1824.73 1404.27 1819.55 1411.83 1814.37 1418.92 1808.5 1425.55 1801.93 1432.18 1795.37 1438.14 1788.76 1443.42 1782.11L1442.06 1780.75C1434.27 1790.56 1425.4 1799.85 1415.45 1808.64 1405.51 1817.42 1394.55 1824 1382.6 1828.36 1389.2 1817.21 1395.84 1806.04 1402.53 1794.87 1409.21 1783.69 1415.91 1772.39 1422.62 1760.95L1395.6 1762.11 1390.93 1771.23C1388.8 1766.67 1386.14 1763.6 1382.95 1762.01 1379.77 1760.42 1376.08 1759.68 1371.9 1759.79 1362.43 1759.96 1353.3 1762.66 1344.52 1767.88 1335.74 1773.1 1328.5 1779.81 1322.81 1788.01L1316.7 1805.95 1308.2 1815.54C1304.28 1819.51 1300.52 1822.79 1296.92 1825.35 1293.31 1827.92 1290.08 1829.25 1287.23 1829.34 1285.68 1829.29 1284.54 1828.8 1283.81 1827.85 1283.09 1826.91 1282.73 1825.79 1282.74 1824.48 1283.06 1820.45 1285.28 1815.68 1289.4 1810.17 1293.52 1804.66 1297.63 1798.86 1301.75 1792.79 1305.87 1786.72 1308.08 1780.83 1308.4 1775.11 1308.29 1769.97 1306.62 1766.13 1303.4 1763.59 1300.18 1761.05 1296.08 1759.78 1291.11 1759.79 1284.71 1759.99 1278.3 1762.4 1271.87 1767.01 1265.45 1771.61 1259.33 1777.15 1253.53 1783.63 1247.73 1790.12 1242.57 1796.28 1238.05 1802.13L1237.66 1801.74C1246.21 1788.32 1255.15 1775.12 1264.49 1762.12L1236.88 1763.28 1222.98 1787.02 1209.73 1744.34 1209.55 1742.65 1216.21 1745.38C1220.09 1745.29 1223.3 1743.97 1225.85 1741.43 1228.39 1738.89 1229.71 1735.68 1229.8 1731.8 1229.71 1727.92 1228.39 1724.71 1225.85 1722.16 1223.3 1719.62 1220.09 1718.3 1216.21 1718.21L1207.45 1721.8 1204.67 1694.2C1204.67 1573.97 1290.01 1473.66 1403.46 1450.46Z" fill="#fff" fill-rule="evenodd"/>
  </g>
</svg>