<svg width="2062" height="757"
  xmlns="http://www.w3.org/2000/svg"
  xmlns:xlink="http://www.w3.org/1999/xlink" xml:space="preserve" overflow="hidden">
  <defs>
    <clipPath id="clip0">
      <rect x="1169" y="859" width="2062" height="757"/>
    </clipPath>
  </defs>
  <g clip-path="url(#clip0)" transform="translate(-1169 -859)">
    <path d="M2950.2 1023.09C2950.02 1023.36 2949.81 1023.69 2949.57 1024.09 2949.17 1024.65 2949.01 1025.24 2949.08 1025.88 2949.15 1026.52 2949.44 1027.06 2949.95 1027.51 2950.22 1026.05 2950.3 1024.58 2950.2 1023.09ZM2811.5 1023.09C2811.32 1023.36 2811.11 1023.69 2810.87 1024.09 2810.47 1024.65 2810.31 1025.24 2810.38 1025.88 2810.45 1026.52 2810.74 1027.06 2811.25 1027.51 2811.52 1026.05 2811.6 1024.58 2811.5 1023.09ZM2865.69 1007.08C2864.66 1007.98 2863.93 1009.06 2863.5 1010.31 2863.07 1011.56 2862.98 1012.86 2863.23 1014.2L2863.24 1014.21C2864.27 1011.91 2865.09 1009.53 2865.69 1007.08ZM3188.68 1001.19C3189.28 1001.26 3189.79 1001.53 3190.22 1002.02 3190.62 1002.52 3190.81 1003.08 3190.77 1003.68 3190.74 1004.29 3190.49 1004.82 3190.03 1005.28L3185.13 1009.91C3184.74 1010.35 3184.44 1010.83 3184.22 1011.36 3184 1011.9 3183.87 1012.45 3183.83 1013.04 3183.92 1014.1 3184.51 1015.13 3185.6 1016.1 3186.7 1017.08 3187.9 1018.01 3189.23 1018.88 3191.08 1019.98 3192.66 1021.38 3193.99 1023.08 3195.03 1024.55 3195.62 1026.16 3195.76 1027.91 3195.9 1029.65 3195.56 1031.33 3194.76 1032.95 3194.65 1033.17 3194.6 1033.4 3194.62 1033.63 3194.64 1033.87 3194.72 1034.09 3194.87 1034.29 3195.03 1034.48 3195.22 1034.61 3195.44 1034.69 3195.66 1034.77 3195.9 1034.78 3196.14 1034.72 3201.94 1033.3 3207.44 1031.18 3212.65 1028.34 3217.85 1025.5 3222.62 1022.02 3226.97 1017.89 3227.19 1017.67 3227.45 1017.5 3227.73 1017.38 3228.02 1017.26 3228.32 1017.2 3228.63 1017.2 3228.95 1017.2 3229.25 1017.26 3229.54 1017.38 3229.82 1017.5 3230.08 1017.67 3230.3 1017.89 3230.76 1018.38 3231 1018.93 3231 1019.56 3231 1020.19 3230.78 1020.75 3230.32 1021.24 3226.96 1024.61 3222.85 1027.77 3217.99 1030.71 3213.12 1033.65 3207.96 1036.04 3202.5 1037.88 3197.05 1039.71 3191.74 1040.66 3186.59 1040.72 3185.09 1040.72 3183.59 1040.62 3182.1 1040.42 3179.11 1040.14 3176.37 1039.22 3173.9 1037.65 3171.42 1036.08 3169.41 1034 3167.87 1031.41 3167.57 1030.83 3167.49 1030.24 3167.64 1029.65 3167.79 1029.05 3168.14 1028.58 3168.69 1028.22 3169.25 1027.89 3169.82 1027.79 3170.42 1027.92 3171.02 1028.05 3171.51 1028.38 3171.88 1028.91 3173.95 1031.59 3176.54 1033.26 3179.67 1033.93 3182.79 1034.6 3185.83 1034.13 3188.81 1032.53 3189.41 1032.2 3189.91 1031.76 3190.3 1031.21 3190.7 1030.66 3190.96 1030.05 3191.08 1029.37 3191.19 1028.68 3191.15 1028.02 3190.97 1027.37 3190.78 1026.72 3190.46 1026.14 3190 1025.62 3188.98 1024.5 3187.83 1023.55 3186.54 1022.77 3185.3 1022.03 3184.15 1021.17 3183.09 1020.2 3182.03 1019.22 3181.09 1018.15 3180.24 1016.97 3180.13 1016.77 3179.98 1016.62 3179.8 1016.49 3179.62 1016.37 3179.41 1016.3 3179.19 1016.26 3178.97 1016.23 3178.75 1016.25 3178.54 1016.32 3178.34 1016.39 3178.15 1016.5 3177.99 1016.65L3171.12 1023.13C3170.81 1023.43 3170.45 1023.63 3170.05 1023.74 3169.64 1023.84 3169.23 1023.83 3168.81 1023.71 3168.4 1023.58 3168.05 1023.36 3167.76 1023.06 3167.47 1022.75 3167.28 1022.38 3167.18 1021.96 3167.09 1021.54 3167.1 1021.12 3167.23 1020.72 3167.35 1020.32 3167.58 1019.97 3167.89 1019.68L3181.7 1006.64C3183.26 1004.76 3185.02 1003.1 3186.99 1001.66 3187.51 1001.28 3188.07 1001.12 3188.68 1001.19ZM3152.18 986.235C3152.8 986.157 3153.38 986.316 3153.92 986.712 3155 987.615 3155.8 988.702 3156.33 989.971 3156.85 991.24 3157.05 992.578 3156.92 993.985 3156.93 995.248 3156.37 996.88 3155.27 998.879 3154.16 1000.88 3151.97 1002.88 3148.67 1004.87 3148.31 1005.07 3147.92 1005.17 3147.51 1005.17 3146.97 1005.16 3146.49 1005 3146.08 1004.68 3145.66 1004.36 3145.38 1003.93 3145.24 1003.41 3145.1 1002.88 3145.14 1002.37 3145.34 1001.89 3145.54 1001.41 3145.87 1001.02 3146.34 1000.74 3148.71 999.322 3150.28 997.972 3151.06 996.693 3151.85 995.414 3152.23 994.393 3152.22 993.631 3152.29 993.023 3152.21 992.442 3152 991.887 3151.79 991.331 3151.46 990.85 3151.01 990.444 3150.5 990.014 3150.2 989.487 3150.13 988.864 3150.06 988.24 3150.22 987.661 3150.62 987.125 3151.04 986.609 3151.57 986.312 3152.18 986.235ZM3025.26 969.928C3025.05 969.931 3024.84 969.95 3024.63 969.984L3024.63 969.988C3023.01 970.366 3020.84 972.724 3018.12 977.061 3015.4 981.398 3012.65 986.855 3009.87 993.432 3007.09 1000.01 3004.8 1006.85 3003.01 1013.94 3002.96 1014.12 3002.98 1014.29 3003.05 1014.45 3003.12 1014.6 3003.24 1014.72 3003.4 1014.81 3003.57 1014.88 3003.74 1014.9 3003.9 1014.86 3004.07 1014.82 3004.21 1014.72 3004.32 1014.58 3008.7 1008.51 3012.73 1002.21 3016.39 995.682 3020.88 987.526 3023.73 981.434 3024.93 977.405 3026.13 973.376 3026.46 970.967 3025.92 970.178 3025.91 970.137 3025.87 970.087 3025.78 970.027 3025.7 969.967 3025.52 969.934 3025.26 969.928ZM2747.84 969.611C2747.06 969.713 2745.98 971.062 2744.6 973.658 2743.22 976.254 2741.75 979.487 2740.18 983.358 2738.62 987.228 2737.17 991.126 2735.84 995.051 2734.51 998.976 2733.51 1002.32 2732.84 1005.08 2732.17 1007.84 2732.03 1009.41 2732.44 1009.78 2732.94 1009.96 2733.91 1008.91 2735.35 1006.63 2736.8 1004.35 2738.42 1001.4 2740.21 997.762 2742 994.128 2743.66 990.368 2745.19 986.484 2746.71 982.6 2747.81 979.143 2748.46 976.113 2749.12 973.083 2749.04 971.033 2748.22 969.963 2748.16 969.894 2748.11 969.821 2748.06 969.742 2748 969.664 2747.93 969.622 2747.84 969.615ZM2748 964.898C2748.49 964.908 2748.98 964.994 2749.46 965.157 2750.42 965.482 2751.21 966.068 2751.85 966.914 2753.94 969.701 2754.42 973.545 2753.29 978.445 2752.15 983.346 2750.14 988.594 2747.24 994.191 2744.34 999.787 2741.3 1005.02 2738.1 1009.9 2734.91 1014.77 2732.3 1018.57 2730.28 1021.31 2730.22 1021.41 2730.1 1021.64 2729.92 1021.99 2729.73 1022.34 2729.63 1022.49 2729.61 1022.43 2729.43 1023.33 2729.19 1024.59 2728.88 1026.21 2728.57 1027.83 2728.32 1029.12 2728.15 1030.1 2728.12 1030.3 2728.15 1030.48 2728.24 1030.65 2728.32 1030.82 2728.45 1030.95 2728.63 1031.04 2728.81 1031.13 2728.99 1031.16 2729.18 1031.12 2729.36 1031.09 2729.53 1031 2729.66 1030.86 2732.26 1028.14 2734.75 1026.13 2737.16 1024.83 2739.57 1023.53 2741.9 1022.96 2744.14 1023.12 2745.91 1023.3 2747.52 1023.86 2748.97 1024.82 2750.42 1025.77 2751.58 1027.03 2752.45 1028.6 2753.46 1030.43 2754.79 1031.92 2756.45 1033.09 2758.11 1034.26 2759.96 1035.01 2762.01 1035.34 2765.46 1035.78 2769.03 1035.34 2772.73 1034.03 2776.43 1032.71 2779.9 1031.06 2783.13 1029.07 2786.36 1027.07 2789 1025.28 2791.03 1023.68 2793.06 1022.08 2794.13 1021.21 2794.24 1021.08 2794.75 1020.65 2795.32 1020.45 2795.95 1020.49 2796.26 1020.51 2796.56 1020.59 2796.83 1020.72L2797.24 1021.04 2797.39 1020.8C2797.9 1020.13 2798.45 1019.49 2799.04 1018.88 2801.42 1016.42 2803.8 1015.13 2806.18 1015L2806.27 1015C2806.94 1015.03 2807.49 1015.28 2807.93 1015.73 2808.36 1016.18 2808.58 1016.75 2808.59 1017.42 2808.55 1018.09 2808.31 1018.64 2807.86 1019.08 2807.41 1019.51 2806.85 1019.74 2806.18 1019.75L2806.16 1019.75C2805.19 1019.82 2803.87 1020.72 2802.22 1022.45 2800.57 1024.17 2799.38 1026.25 2798.64 1028.7 2798.17 1030.05 2798.19 1031.35 2798.71 1032.6 2799.23 1033.84 2800.13 1034.77 2801.42 1035.38 2802.51 1036.18 2803.7 1036.51 2804.96 1036.37 2806.23 1036.23 2807.31 1035.65 2808.21 1034.63 2808.56 1034.27 2808.89 1033.82 2809.19 1033.27 2809.5 1032.72 2809.42 1032.24 2808.96 1031.81 2808.15 1031.28 2807.47 1030.62 2806.92 1029.83 2806.38 1029.04 2806 1028.16 2805.79 1027.2 2805.59 1026.25 2805.58 1025.29 2805.76 1024.35 2805.93 1023.4 2806.28 1022.52 2806.81 1021.7 2808.26 1019.34 2809.58 1017.96 2810.78 1017.57 2811.97 1017.17 2812.97 1017.24 2813.78 1017.79 2814.99 1018.55 2815.75 1019.89 2816.06 1021.78 2816.36 1023.68 2816.32 1025.75 2815.93 1028.01 2815.86 1028.62 2815.99 1029.16 2816.32 1029.63 2816.65 1030.1 2817.11 1030.4 2817.7 1030.54 2825.32 1031.77 2832.71 1031.22 2839.87 1028.91 2847.02 1026.6 2853.35 1022.72 2858.83 1017.26L2859.15 1017.05 2858.84 1016.24C2858.14 1013.71 2858.2 1011.26 2859 1008.88 2859.81 1006.5 2861.26 1004.52 2863.35 1002.96 2865.9 1001.45 2867.89 1001.37 2869.31 1002.71 2869.62 1002.91 2869.94 1003.41 2870.25 1004.19 2870.56 1004.98 2870.56 1006.35 2870.23 1008.29 2869.9 1010.23 2868.94 1013.03 2867.33 1016.7 2867.23 1017.03 2867.31 1017.43 2867.59 1017.92 2867.87 1018.4 2868.24 1018.66 2868.69 1018.71 2870.41 1018.7 2872.1 1018.48 2873.75 1018.03 2875.41 1017.58 2876.98 1016.93 2878.48 1016.07 2879.51 1015.46 2880.6 1015.02 2881.75 1014.75 2882.91 1014.47 2884.09 1014.76 2885.32 1015.63 2886.51 1016.62 2886.94 1017.81 2886.61 1019.19 2886.29 1020.57 2885.75 1021.96 2884.98 1023.35 2883.53 1026.13 2882.79 1028.34 2882.77 1029.99 2882.76 1031.64 2883.75 1033.03 2885.75 1034.18 2887.32 1035.06 2889.98 1035.48 2893.73 1035.44 2897.48 1035.4 2901.79 1034.81 2906.67 1033.67 2911.54 1032.54 2916.46 1030.78 2921.41 1028.39 2926.37 1026.01 2930.84 1022.91 2934.82 1019.11 2935.05 1018.89 2935.31 1018.73 2935.6 1018.61 2935.88 1018.49 2936.19 1018.44 2936.5 1018.44 2936.82 1018.45 2937.12 1018.51 2937.4 1018.63L2937.75 1018.87 2939.53 1017.25C2941.31 1015.85 2943.1 1015.1 2944.88 1015L2944.97 1015C2945.64 1015.03 2946.19 1015.28 2946.62 1015.73 2947.06 1016.18 2947.28 1016.75 2947.29 1017.42 2947.25 1018.09 2947.01 1018.64 2946.56 1019.08 2946.11 1019.51 2945.55 1019.74 2944.88 1019.75L2944.86 1019.75C2943.88 1019.82 2942.57 1020.72 2940.92 1022.45 2939.27 1024.17 2938.08 1026.25 2937.34 1028.7 2936.86 1030.05 2936.89 1031.35 2937.4 1032.6 2937.92 1033.84 2938.83 1034.77 2940.12 1035.38 2941.21 1036.18 2942.39 1036.51 2943.66 1036.37 2944.93 1036.23 2946.01 1035.65 2946.9 1034.63 2947.26 1034.27 2947.59 1033.82 2947.89 1033.27 2948.2 1032.72 2948.12 1032.24 2947.66 1031.81 2946.84 1031.28 2946.16 1030.62 2945.62 1029.83 2945.08 1029.04 2944.7 1028.16 2944.49 1027.2 2944.29 1026.25 2944.28 1025.29 2944.45 1024.35 2944.63 1023.4 2944.98 1022.52 2945.51 1021.7 2946.96 1019.34 2948.28 1017.96 2949.47 1017.57 2950.67 1017.17 2951.67 1017.24 2952.48 1017.79 2953.69 1018.55 2954.45 1019.89 2954.76 1021.78 2955.06 1023.68 2955.02 1025.75 2954.63 1028.01 2954.56 1028.62 2954.69 1029.16 2955.02 1029.63 2955.35 1030.1 2955.81 1030.4 2956.4 1030.54 2964.02 1031.77 2971.41 1031.22 2978.57 1028.91 2984.83 1026.89 2990.45 1023.66 2995.44 1019.23L2997.43 1017.36 2997.54 1016.81C2998.38 1012.81 2999.55 1008.51 3001.04 1003.92 3003.03 997.79 3005.33 991.866 3007.97 986.146 3010.6 980.425 3013.31 975.644 3016.09 971.802 3018.87 967.96 3021.48 965.793 3023.92 965.302 3025.2 964.979 3026.41 965.077 3027.56 965.597 3028.7 966.117 3029.58 966.967 3030.19 968.148 3031.09 970.298 3030.96 973.388 3029.78 977.418 3028.61 981.447 3026.79 985.914 3024.32 990.818 3021.85 995.721 3019.13 1000.56 3016.16 1005.33 3013.18 1010.11 3010.34 1014.31 3007.64 1017.95 3004.94 1021.59 3002.76 1024.16 3001.12 1025.66 3001.04 1025.73 3000.97 1025.79 3000.89 1025.84 3000.58 1028.52 3000.62 1031.19 3001 1033.86 3001.15 1034.78 3001.51 1035.59 3002.07 1036.3 3002.63 1037.01 3003.34 1037.54 3004.2 1037.89 3005.06 1038.23 3005.94 1038.34 3006.83 1038.21 3007.72 1038.09 3008.53 1037.75 3009.27 1037.19 3010.31 1036.32 3011.17 1035.3 3011.85 1034.13 3012.46 1033.1 3012.96 1032.03 3013.36 1030.91 3013.75 1029.79 3014.03 1028.64 3014.19 1027.46 3014.3 1026.56 3014.17 1025.7 3013.8 1024.9 3013.43 1024.11 3012.87 1023.45 3012.12 1022.95 3011.25 1022.36 3010.43 1021.77 3009.65 1021.17 3009.3 1020.9 3009.05 1020.57 3008.89 1020.18 3008.73 1019.78 3008.69 1019.37 3008.75 1018.93 3008.82 1018.5 3008.99 1018.12 3009.26 1017.79 3009.53 1017.46 3009.86 1017.22 3010.27 1017.06 3011.5 1016.54 3012.74 1016.42 3013.99 1016.71 3015.23 1017.01 3016.29 1017.67 3017.15 1018.69 3017.78 1019.49 3018.24 1020.38 3018.53 1021.37 3022.95 1023.91 3027.84 1025.85 3033.21 1027.19 3038.58 1028.53 3043.96 1028.75 3049.37 1027.85 3054.77 1026.95 3059.73 1024.41 3064.24 1020.22 3064.47 1020 3064.72 1019.83 3065.01 1019.72 3065.3 1019.61 3065.6 1019.55 3065.92 1019.56 3066.24 1019.56 3066.54 1019.63 3066.82 1019.76L3067.1 1019.96 3068.53 1018.33C3069.32 1017.52 3070.16 1016.76 3071.04 1016.04 3074.57 1013.16 3078.59 1011.15 3083.11 1010.02 3083.53 1009.91 3083.94 1009.92 3084.34 1010.03 3084.74 1010.15 3085.09 1010.36 3085.39 1010.67 3085.69 1010.99 3085.89 1011.35 3085.98 1011.76 3086.08 1012.17 3086.07 1012.58 3085.95 1012.99 3085.82 1013.41 3085.61 1013.76 3085.3 1014.05 3085 1014.33 3084.64 1014.53 3084.22 1014.63 3080.41 1015.58 3077.01 1017.27 3074.03 1019.69 3071.05 1022.12 3068.7 1025.11 3066.99 1028.65 3066.2 1030.04 3065.74 1031.52 3065.59 1033.07 3065.44 1034.63 3065.62 1036.17 3066.12 1037.68 3066.28 1037.97 3066.42 1038.21 3066.57 1038.38 3066.72 1038.55 3066.84 1038.64 3066.94 1038.65 3067.69 1039.02 3068.88 1038.2 3070.5 1036.19 3072.13 1034.18 3073.87 1031.57 3075.74 1028.37 3077.61 1025.16 3079.29 1021.95 3080.77 1018.72 3080.99 1018.24 3081.33 1017.87 3081.78 1017.63 3082.23 1017.38 3082.72 1017.3 3083.25 1017.37 3083.77 1017.45 3084.22 1017.68 3084.58 1018.04 3084.94 1018.4 3085.16 1018.84 3085.25 1019.37 3085.23 1019.51 3085.46 1020.49 3085.92 1022.32 3086.38 1024.16 3087.2 1026.22 3088.38 1028.52 3089.56 1030.82 3091.23 1032.74 3093.38 1034.28 3096.75 1036.41 3100.37 1037.36 3104.26 1037.14 3108.15 1036.92 3112 1036 3115.81 1034.38 3119.63 1032.77 3123.12 1030.92 3126.29 1028.86 3129.45 1026.79 3132 1024.97 3133.92 1023.4 3135.85 1021.82 3136.86 1020.97 3136.96 1020.85 3137.47 1020.41 3138.04 1020.2 3138.66 1020.23 3139.29 1020.26 3139.84 1020.52 3140.3 1021L3140.3 1021C3140.51 1021.24 3140.67 1021.5 3140.78 1021.79 3140.88 1022.09 3140.93 1022.39 3140.91 1022.71 3140.9 1023.03 3140.82 1023.33 3140.69 1023.61 3140.56 1023.89 3140.38 1024.14 3140.15 1024.35 3139.86 1024.66 3138.62 1025.7 3136.43 1027.47 3134.25 1029.25 3131.4 1031.25 3127.9 1033.47 3124.4 1035.7 3120.53 1037.64 3116.29 1039.3 3112.05 1040.96 3107.73 1041.83 3103.33 1041.91 3098.94 1041.98 3094.75 1040.76 3090.78 1038.24 3089.52 1037.45 3088.39 1036.53 3087.36 1035.47 3086.34 1034.41 3085.45 1033.24 3084.7 1031.96 3084.5 1031.6 3084.23 1031.32 3083.89 1031.11 3083.56 1030.9 3083.18 1030.78 3082.77 1030.76 3082.37 1030.74 3081.98 1030.82 3081.63 1031 3081.27 1031.18 3080.98 1031.44 3080.75 1031.78 3078.78 1034.85 3076.57 1037.52 3074.13 1039.77 3071.69 1042.03 3069.33 1043.23 3067.06 1043.39L3066.94 1043.39C3065.8 1043.35 3064.79 1043.01 3063.9 1042.38 3063.01 1041.75 3062.35 1040.91 3061.93 1039.85 3061.07 1037.68 3060.7 1035.46 3060.83 1033.18 3060.9 1032.04 3061.09 1030.93 3061.4 1029.85L3062.23 1027.8 3060.64 1028.79C3058.26 1030.15 3055.78 1031.17 3053.21 1031.84 3048.08 1033.18 3042.89 1033.49 3037.66 1032.79 3032.42 1032.08 3027.46 1030.72 3022.77 1028.71 3022.32 1028.52 3021.87 1028.43 3021.4 1028.44 3020.92 1028.45 3020.47 1028.56 3020.04 1028.77 3019.6 1028.98 3019.24 1029.27 3018.94 1029.63 3018.63 1030 3018.42 1030.41 3018.29 1030.88 3017.75 1032.9 3016.95 1034.81 3015.89 1036.61 3014.76 1038.72 3013.22 1040.39 3011.27 1041.62 3009.32 1042.85 3007.15 1043.51 3004.77 1043.61 3003.95 1043.61 3003.14 1043.52 3002.34 1043.36L3001.46 1043.05C2998.93 1041.68 2997.27 1039.12 2996.49 1035.39 2995.91 1032.58 2995.82 1029.13 2996.22 1025.03L2996.27 1024.69 2994.9 1025.76C2991.51 1028.29 2987.98 1030.3 2984.32 1031.8 2978.45 1034.2 2972.8 1035.56 2967.36 1035.88 2961.92 1036.2 2957.25 1035.76 2953.35 1034.56 2953.15 1034.52 2952.97 1034.53 2952.79 1034.61 2952.61 1034.69 2952.47 1034.82 2952.37 1035 2951.55 1036.8 2950.35 1038.25 2948.77 1039.32 2947.2 1040.4 2945.42 1040.98 2943.45 1041.08 2942.48 1041.06 2941.52 1040.92 2940.59 1040.66 2939.66 1040.41 2938.77 1040.05 2937.92 1039.57 2935.65 1038.43 2934.04 1036.74 2933.09 1034.52 2932.14 1032.3 2932.03 1029.97 2932.77 1027.52L2933.03 1026.78 2931.33 1028.06C2928.94 1029.73 2926.41 1031.21 2923.75 1032.51 2918.43 1035.12 2913.09 1037.04 2907.74 1038.29 2902.4 1039.54 2897.58 1040.16 2893.27 1040.15 2891.57 1040.25 2889.88 1040.14 2888.21 1039.83 2886.53 1039.51 2884.92 1039 2883.36 1038.29 2880.59 1036.57 2878.94 1034.66 2878.41 1032.56 2877.88 1030.46 2877.94 1028.41 2878.6 1026.4 2879.25 1024.4 2879.97 1022.67 2880.76 1021.23 2880.87 1021 2880.8 1020.83 2880.56 1020.71 2880.32 1020.6 2879.89 1020.68 2879.27 1020.96 2877.65 1021.85 2875.95 1022.51 2874.17 1022.93 2872.39 1023.35 2870.58 1023.53 2868.74 1023.46 2867.88 1023.47 2867.04 1023.39 2866.2 1023.22 2865.37 1023.04 2864.56 1022.77 2863.78 1022.41 2863.48 1022.51 2863.18 1022.55 2862.86 1022.53 2862.55 1022.5 2862.26 1022.42 2861.97 1022.27 2861.76 1022.16 2861.57 1022.02 2861.4 1021.86L2861.18 1021.56 2860.21 1022.48C2855.61 1026.59 2850.75 1029.7 2845.62 1031.8 2839.75 1034.2 2834.1 1035.56 2828.66 1035.88 2823.22 1036.2 2818.55 1035.76 2814.65 1034.56 2814.46 1034.52 2814.27 1034.53 2814.09 1034.61 2813.91 1034.69 2813.77 1034.82 2813.67 1035 2812.85 1036.8 2811.65 1038.25 2810.08 1039.32 2808.5 1040.4 2806.72 1040.98 2804.75 1041.08 2803.78 1041.06 2802.83 1040.92 2801.89 1040.66 2800.96 1040.41 2800.07 1040.05 2799.22 1039.57 2796.95 1038.43 2795.34 1036.74 2794.39 1034.52 2793.44 1032.3 2793.33 1029.97 2794.07 1027.52L2794.17 1027.25 2793.61 1027.69C2791.36 1029.45 2788.47 1031.39 2784.94 1033.52 2781.4 1035.64 2777.58 1037.39 2773.47 1038.75 2769.36 1040.11 2765.31 1040.54 2761.32 1040.02 2758.54 1039.57 2756.03 1038.55 2753.78 1036.97 2751.53 1035.39 2749.72 1033.36 2748.35 1030.89 2747.88 1030.03 2747.25 1029.33 2746.45 1028.8 2745.66 1028.27 2744.77 1027.95 2743.8 1027.84 2742.93 1027.74 2741.7 1028.02 2740.11 1028.7 2738.53 1029.37 2736.57 1030.79 2734.26 1032.97 2731.94 1035.14 2729.24 1038.43 2726.18 1042.83 2725.86 1043.27 2725.45 1043.58 2724.96 1043.74 2724.46 1043.9 2723.95 1043.89 2723.43 1043.71 2722.92 1043.51 2722.53 1043.19 2722.25 1042.75 2721.97 1042.31 2721.85 1041.81 2721.89 1041.26 2722.1 1038.92 2722.44 1036.26 2722.9 1033.28 2723.13 1031.79 2723.39 1030.24 2723.67 1028.65L2724 1026.88 2723.28 1027.47C2721.09 1029.25 2718.25 1031.25 2714.74 1033.47 2711.24 1035.7 2707.37 1037.64 2703.13 1039.3 2698.89 1040.96 2694.57 1041.83 2690.18 1041.91 2685.78 1041.98 2681.59 1040.76 2677.62 1038.24 2676.37 1037.45 2675.23 1036.53 2674.2 1035.47 2673.18 1034.41 2672.29 1033.24 2671.54 1031.96 2671.34 1031.6 2671.07 1031.32 2670.74 1031.11 2670.4 1030.9 2670.03 1030.78 2669.62 1030.76 2669.21 1030.74 2668.83 1030.82 2668.47 1031 2668.12 1031.18 2667.82 1031.44 2667.59 1031.78 2665.62 1034.85 2663.41 1037.52 2660.97 1039.77 2658.53 1042.03 2656.18 1043.23 2653.9 1043.39L2653.78 1043.39C2652.65 1043.35 2651.64 1043.01 2650.74 1042.38 2649.85 1041.75 2649.2 1040.91 2648.77 1039.85 2647.91 1037.68 2647.54 1035.46 2647.68 1033.18 2647.81 1030.9 2648.43 1028.73 2649.54 1026.68 2651.57 1022.47 2654.35 1018.92 2657.88 1016.04 2661.41 1013.16 2665.44 1011.15 2669.95 1010.02 2670.37 1009.91 2670.78 1009.92 2671.18 1010.03 2671.58 1010.15 2671.94 1010.36 2672.24 1010.67 2672.53 1010.99 2672.73 1011.35 2672.83 1011.76 2672.93 1012.17 2672.91 1012.58 2672.79 1012.99 2672.67 1013.41 2672.45 1013.76 2672.15 1014.05 2671.84 1014.33 2671.48 1014.53 2671.06 1014.63 2667.25 1015.58 2663.86 1017.27 2660.88 1019.69 2657.89 1022.12 2655.55 1025.11 2653.83 1028.65 2653.05 1030.04 2652.58 1031.52 2652.43 1033.07 2652.28 1034.63 2652.46 1036.17 2652.97 1037.68 2653.12 1037.97 2653.27 1038.21 2653.42 1038.38 2653.56 1038.55 2653.69 1038.64 2653.79 1038.65 2654.54 1039.02 2655.72 1038.2 2657.35 1036.19 2658.97 1034.18 2660.72 1031.57 2662.59 1028.37 2664.46 1025.16 2666.13 1021.95 2667.61 1018.72 2667.84 1018.24 2668.17 1017.87 2668.62 1017.63 2669.07 1017.38 2669.56 1017.3 2670.09 1017.37 2670.62 1017.45 2671.06 1017.68 2671.42 1018.04 2671.78 1018.4 2672.01 1018.84 2672.09 1019.37 2672.08 1019.51 2672.3 1020.49 2672.76 1022.32 2673.22 1024.16 2674.04 1026.22 2675.22 1028.52 2676.41 1030.82 2678.07 1032.74 2680.22 1034.28 2683.59 1036.41 2687.22 1037.36 2691.1 1037.14 2694.99 1036.92 2698.84 1036 2702.66 1034.38 2706.48 1032.77 2709.97 1030.92 2713.13 1028.86 2716.29 1026.79 2718.84 1024.97 2720.77 1023.4 2722.69 1021.82 2723.71 1020.97 2723.81 1020.85 2724.06 1020.63 2724.33 1020.47 2724.61 1020.36L2725.19 1020.28 2725.31 1020.11C2726.08 1016.4 2726.93 1012.62 2727.86 1008.79 2728.78 1004.96 2729.76 1001.21 2730.79 997.541 2732.91 990.07 2734.84 984.164 2736.57 979.824 2738.3 975.483 2739.83 972.281 2741.15 970.218 2742.47 968.154 2743.58 966.802 2744.48 966.163 2745.38 965.523 2746.05 965.168 2746.5 965.099 2747.01 964.956 2747.51 964.889 2748 964.898ZM2608.66 939.008C2608.91 938.986 2609.18 939.009 2609.45 939.075 2609.99 939.225 2610.43 939.514 2610.75 939.944 2611.07 940.374 2611.23 940.871 2611.22 941.436 2611.07 946.289 2610.65 951.967 2609.95 958.471 2609.25 964.976 2608.39 971.813 2607.37 978.985 2606.35 986.156 2605.28 993.169 2604.17 1000.02 2603.06 1006.88 2602.02 1013.08 2601.05 1018.63 2600.99 1018.98 2601.05 1019.31 2601.21 1019.6 2601.38 1019.9 2601.62 1020.11 2601.94 1020.25 2602.27 1020.38 2602.6 1020.4 2602.92 1020.3 2603.24 1020.2 2603.5 1020.01 2603.71 1019.72 2607.42 1014.28 2611.33 1008.33 2615.42 1001.85 2619.52 995.38 2623.56 988.853 2627.54 982.276 2631.53 975.698 2635.2 969.537 2638.57 963.792 2641.94 958.048 2644.76 953.188 2647.02 949.214 2649.28 945.239 2650.73 942.617 2651.38 941.348 2651.68 940.801 2652.1 940.423 2652.64 940.215 2653.19 940.007 2653.76 940.01 2654.34 940.223 2654.91 940.462 2655.32 940.844 2655.59 941.369 2655.85 941.894 2655.91 942.458 2655.75 943.062 2655.33 944.61 2654.87 946.249 2654.38 947.977 2653.9 949.705 2653.39 951.509 2652.86 953.39 2651.39 958.529 2649.69 964.659 2647.76 971.78 2645.83 978.902 2643.98 986.305 2642.19 993.988 2640.41 1001.67 2639 1008.92 2637.96 1015.75 2636.93 1022.57 2636.56 1028.25 2636.88 1032.8 2637.19 1037.34 2638.48 1040.03 2640.75 1040.87 2641.39 1041.08 2641.85 1041.47 2642.14 1042.03 2642.43 1042.58 2642.49 1043.19 2642.31 1043.83 2642.1 1044.47 2641.71 1044.94 2641.16 1045.23 2640.6 1045.53 2640 1045.58 2639.36 1045.4 2635.07 1043.9 2632.72 1039.52 2632.31 1032.27 2631.89 1025.01 2632.81 1015.76 2635.08 1004.49 2637.34 993.222 2640.35 980.815 2644.1 967.266 2644.16 967.038 2644.14 966.823 2644.04 966.622 2643.94 966.421 2643.79 966.272 2643.57 966.176 2643.35 966.087 2643.14 966.078 2642.93 966.146 2642.72 966.215 2642.55 966.349 2642.42 966.549 2639.03 972.322 2635.34 978.5 2631.35 985.082 2627.36 991.665 2623.31 998.193 2619.21 1004.67 2615.11 1011.14 2611.2 1017.1 2607.48 1022.55 2603.76 1027.99 2600.47 1032.46 2597.62 1035.96 2597.27 1036.38 2596.83 1036.65 2596.32 1036.76 2595.81 1036.88 2595.31 1036.82 2594.81 1036.6 2594.31 1036.36 2593.95 1036 2593.71 1035.53 2593.47 1035.07 2593.39 1034.56 2593.49 1034.02 2593.91 1031.78 2594.57 1028.13 2595.48 1023.05 2596.38 1017.98 2597.4 1012.04 2598.53 1005.24 2599.67 998.434 2600.79 991.319 2601.89 983.891 2603 976.464 2603.96 969.278 2604.77 962.333 2604.79 962.103 2604.74 961.899 2604.62 961.719 2604.49 961.54 2604.32 961.42 2604.1 961.359 2603.88 961.307 2603.67 961.331 2603.47 961.431 2603.28 961.531 2603.14 961.687 2603.05 961.9 2600.41 968.688 2597.26 976.061 2593.61 984.018 2589.95 991.975 2585.72 999.846 2580.93 1007.63 2576.13 1015.41 2570.7 1022.44 2564.64 1028.71 2558.58 1034.98 2551.83 1039.83 2544.38 1043.25 2542.51 1044.11 2540.57 1044.78 2538.57 1045.24 2536.57 1045.7 2534.54 1045.95 2532.48 1045.99 2530.24 1046.05 2528.08 1045.71 2526 1044.96 2523.93 1044.2 2522.04 1043.08 2520.36 1041.6 2518.38 1039.79 2517.07 1037.64 2516.43 1035.15 2515.78 1032.65 2515.87 1030.13 2516.71 1027.58 2517.08 1026.19 2518.12 1024.44 2519.81 1022.33 2521.51 1020.21 2524.28 1018.22 2528.14 1016.35 2532 1014.48 2537.37 1013.21 2544.24 1012.55 2544.91 1012.51 2545.48 1012.7 2545.96 1013.11 2546.43 1013.51 2546.71 1014.05 2546.79 1014.71 2546.82 1015.03 2546.78 1015.33 2546.69 1015.63 2546.59 1015.93 2546.45 1016.2 2546.24 1016.44 2546.04 1016.68 2545.8 1016.88 2545.52 1017.02 2545.25 1017.16 2544.95 1017.25 2544.64 1017.28 2538.31 1017.83 2533.11 1019.15 2529.02 1021.21 2524.93 1023.28 2522.31 1025.91 2521.17 1029.12 2520.63 1030.76 2520.57 1032.38 2520.99 1033.98 2521.41 1035.58 2522.26 1036.96 2523.55 1038.11 2525.2 1039.7 2527.64 1040.71 2530.86 1041.14 2534.09 1041.56 2537.96 1040.82 2542.47 1038.92 2550.16 1035.37 2557.1 1030.16 2563.29 1023.32 2569.47 1016.47 2574.98 1008.83 2579.79 1000.4 2584.6 991.971 2588.79 983.611 2592.36 975.32 2595.93 967.028 2598.94 959.662 2601.39 953.222 2602.51 950.335 2603.51 947.793 2604.4 945.595 2605.3 943.396 2606.09 941.626 2606.77 940.282 2607.03 939.784 2607.41 939.426 2607.9 939.206 2608.14 939.096 2608.4 939.03 2608.66 939.008Z" fill="#FFFFFF" fill-rule="evenodd"/>
    <path d="M2712.12 1101.28C2690.2 1101.28 2664.18 1111.79 2634.04 1132.82 2603.9 1153.85 2574.22 1181.12 2545 1214.64 2524.3 1237.8 2507.25 1260.51 2493.85 1282.76 2480.46 1305 2471.63 1323.44 2467.37 1338.07 2466.15 1342.94 2465.54 1347.21 2465.54 1350.87 2465.54 1359.4 2468.89 1363.67 2475.59 1363.67 2479.85 1363.67 2485.63 1361.69 2492.94 1357.72 2500.25 1353.76 2509.68 1346.91 2521.25 1337.15 2540.73 1320.09 2560.52 1299.21 2580.61 1274.53 2600.7 1249.84 2620.19 1225.31 2639.06 1200.93 2653.06 1181.43 2667.52 1162.84 2682.44 1145.16 2697.36 1127.49 2712.73 1113.77 2728.56 1104.02 2727.34 1104.02 2726.73 1103.71 2726.73 1103.11 2724.3 1101.89 2719.43 1101.28 2712.12 1101.28ZM2445.12 1101.28C2433.55 1101.28 2419.09 1108.13 2401.74 1121.85 2384.39 1135.56 2366.42 1153.08 2347.85 1174.42 2329.29 1195.75 2311.78 1218.3 2295.34 1242.07 2278.9 1265.84 2265.66 1288.39 2255.62 1309.73 2245.57 1331.06 2240.55 1347.82 2240.55 1360.01 2240.55 1372.2 2246.33 1378.29 2257.9 1378.29 2270.68 1378.29 2286.06 1371.74 2304.02 1358.64 2321.98 1345.53 2340.4 1328.62 2359.27 1307.9 2378.14 1287.17 2395.65 1265.08 2411.78 1241.61 2427.92 1218.15 2441.01 1195.9 2451.05 1174.87 2461.1 1153.85 2466.12 1136.63 2466.12 1123.22 2466.12 1108.59 2459.12 1101.28 2445.12 1101.28ZM3202.69 1100.36C3192.34 1100.36 3180.62 1104.93 3167.53 1114.08 3154.44 1123.22 3143.94 1131.14 3136.02 1137.85 3121.41 1151.26 3106.19 1166.19 3090.36 1182.65 3074.53 1199.1 3060.22 1216.78 3047.44 1235.67 3063.27 1230.19 3081.99 1222.57 3103.6 1212.82 3125.21 1203.06 3144.24 1192.4 3160.68 1180.82 3164.33 1178.38 3170.73 1173.35 3179.86 1165.73 3188.99 1158.11 3197.51 1149.58 3205.43 1140.13 3213.34 1130.68 3217.3 1122.3 3217.3 1114.99 3217.3 1105.24 3212.43 1100.36 3202.69 1100.36ZM2893.84 1085.73C2880.44 1100.97 2862.33 1122.61 2839.5 1150.65 2816.67 1178.68 2793.68 1208.55 2770.55 1240.24 2768.11 1243.29 2763.7 1249.69 2757.3 1259.44 2750.91 1269.19 2744.06 1280.01 2736.76 1291.9 2729.45 1303.78 2723.21 1315.36 2718.03 1326.64 2712.86 1337.92 2710.27 1346.91 2710.27 1353.61 2710.27 1360.31 2713.92 1363.36 2721.23 1362.75 2729.15 1362.14 2739.5 1356.35 2752.28 1345.38 2765.07 1334.41 2778.77 1321 2793.38 1305.15 2807.99 1289.31 2821.84 1273.61 2834.93 1258.07 2848.02 1242.53 2858.83 1229.58 2867.35 1219.21 2874.05 1211.29 2882.27 1201.39 2892.01 1189.5 2901.75 1177.62 2911.8 1165.27 2922.15 1152.47 2932.5 1139.68 2941.93 1128.4 2950.46 1118.65 2960.2 1107.68 2970.55 1099.91 2981.51 1095.33 2992.47 1090.76 3002.06 1088.02 3010.28 1087.11 3018.5 1086.19 3022.6 1085.73 3022.6 1085.73 3017.73 1091.83 3008.15 1103.71 2993.84 1121.39 2979.53 1139.07 2963.55 1159.94 2945.89 1184.02 2928.24 1208.09 2911.49 1233.08 2895.66 1258.99 2879.83 1284.89 2867.66 1309.42 2859.13 1332.58 2854.87 1342.94 2852.74 1351.48 2852.74 1358.18 2852.74 1364.28 2854.26 1368.39 2857.31 1370.52 2860.35 1372.66 2863.7 1373.72 2867.35 1373.72 2875.88 1373.72 2885.46 1370.07 2896.12 1362.75 2906.77 1355.44 2917.12 1346.75 2927.17 1336.7 2937.22 1326.64 2946.2 1317.04 2954.11 1307.9 2956.09 1305.61 2957.9 1303.52 2959.53 1301.61L2960.04 1301.02 2960.33 1298.87C2963.15 1288.28 2967.37 1277.42 2973.01 1266.3 2984.27 1244.05 2998.42 1222.87 3015.47 1202.76 3025.82 1190.57 3038.61 1177.77 3053.83 1164.36 3069.05 1150.95 3085.49 1138.3 3103.14 1126.42 3120.8 1114.53 3138.3 1104.78 3155.66 1097.16 3173.01 1089.54 3188.38 1085.73 3201.78 1085.73 3209.08 1085.73 3215.78 1087.41 3221.87 1090.76 3227.96 1094.11 3231 1101.28 3231 1112.25 3231 1127.49 3223.69 1141.96 3209.08 1155.67 3194.47 1169.39 3178.03 1182.04 3159.77 1193.62 3139.07 1207.03 3117.45 1218.3 3094.93 1227.44 3072.4 1236.59 3052.92 1243.6 3036.48 1248.47 3027.34 1263.1 3020.04 1278.03 3014.56 1293.27 3009.08 1308.51 3006.34 1323.44 3006.34 1338.07 3006.34 1353.92 3010.14 1364.73 3017.75 1370.52 3025.37 1376.31 3034.35 1379.21 3044.7 1379.21 3063.57 1379.21 3080.77 1374.79 3096.29 1365.95 3111.82 1357.11 3126.28 1345.69 3139.67 1331.67 3153.07 1317.65 3165.85 1303.63 3178.03 1289.61 3180.47 1289.61 3181.68 1291.44 3181.68 1295.1 3181.68 1300.58 3180.47 1304.85 3178.03 1307.9 3165.85 1321.92 3152.61 1335.93 3138.3 1349.95 3124 1363.97 3108.32 1375.4 3091.27 1384.24 3074.22 1393.08 3054.74 1397.49 3032.82 1397.49 3004.82 1397.49 2985.03 1391.4 2973.46 1379.21 2961.89 1367.02 2956.11 1350.56 2956.11 1329.84L2957.19 1321.95 2954.45 1325.04C2948.9 1330.98 2942.85 1337.15 2936.3 1343.55 2923.21 1356.35 2909.51 1367.48 2895.21 1376.92 2880.9 1386.37 2866.74 1391.09 2852.74 1391.09 2837.52 1391.09 2826.86 1387.44 2820.78 1380.12 2814.69 1372.81 2811.64 1363.67 2811.64 1352.7 2811.64 1342.33 2813.77 1330.91 2818.04 1318.41 2822.3 1305.92 2827.47 1294.18 2833.56 1283.21 2826.25 1290.53 2817.58 1300.13 2807.53 1312.01 2797.49 1323.9 2786.38 1335.93 2774.2 1348.12 2762.02 1360.31 2749.85 1370.52 2737.67 1378.75 2725.49 1386.98 2713.92 1391.09 2702.97 1391.09 2688.35 1391.09 2678 1387.74 2671.91 1381.04 2665.83 1374.33 2662.78 1365.8 2662.78 1355.44 2662.78 1345.08 2665.06 1333.65 2669.63 1321.15 2674.2 1308.66 2679.83 1296.32 2686.53 1284.13 2698.09 1264.62 2711.34 1244.97 2726.25 1225.16 2741.17 1205.35 2756.39 1186.91 2771.92 1169.85 2787.44 1152.78 2801.29 1138.15 2813.47 1125.96 2825.04 1114.38 2836.91 1105.85 2849.09 1100.36 2861.26 1094.88 2871.77 1091.07 2880.59 1088.93 2889.42 1086.8 2893.84 1085.73 2893.84 1085.73ZM2702.99 1083.91C2712.12 1083.91 2718.51 1085.28 2722.17 1088.02 2725.82 1090.76 2728.26 1093.66 2729.47 1096.71 2730.08 1099.14 2730.08 1101.28 2729.47 1103.11 2747.13 1091.52 2763.57 1085.73 2778.79 1085.73 2783.05 1085.73 2785.79 1086.34 2787.01 1087.56 2761.44 1103.41 2738.76 1123.68 2718.97 1148.36 2699.18 1173.05 2680.77 1200.63 2663.72 1231.1 2646.67 1261.58 2629.78 1292.96 2613.03 1325.27 2596.29 1357.57 2578.63 1389.57 2560.06 1421.26 2541.5 1452.96 2520.64 1482.21 2497.51 1509.03 2470.11 1540.73 2440.58 1566.48 2408.92 1586.29 2377.26 1606.1 2347.43 1616 2319.42 1616 2301.16 1616 2288.68 1614.63 2281.98 1611.89 2275.28 1609.14 2271.93 1606.86 2271.93 1605.03 2271.93 1602.59 2274.06 1601.37 2278.33 1601.37 2281.37 1601.37 2284.41 1601.52 2287.46 1601.83 2290.5 1602.13 2293.24 1602.29 2295.68 1602.29 2317.6 1602.29 2339.51 1595.58 2361.43 1582.17 2383.35 1568.76 2404.66 1550.94 2425.36 1528.69 2446.06 1506.44 2465.85 1481.91 2484.72 1455.09 2503.6 1428.27 2520.64 1401.76 2535.86 1375.55 2541.34 1365.8 2548.34 1353.15 2556.87 1337.61 2565.39 1322.07 2574.83 1305.15 2585.18 1286.87 2573.61 1300.28 2562.96 1312.16 2553.22 1322.53 2543.47 1332.89 2536.17 1340.51 2531.3 1345.38 2517.9 1357.57 2505.12 1368.09 2492.94 1376.92 2480.76 1385.76 2467.98 1390.79 2454.58 1392.01 2432.06 1393.23 2420.79 1380.43 2420.79 1353.61 2420.79 1338.98 2425.06 1321.46 2433.58 1301.04 2442.1 1280.62 2454.89 1259.14 2471.94 1236.59 2484.11 1221.35 2499.03 1205.04 2516.69 1187.67 2534.34 1170.3 2553.67 1153.69 2574.68 1137.85 2595.68 1122 2617.14 1109.05 2639.06 1098.99 2660.98 1088.93 2682.29 1083.91 2702.99 1083.91ZM1784.09 1056.48C1792.62 1057.09 1796.88 1063.18 1796.88 1074.76 1796.88 1090 1789.27 1113.01 1774.05 1143.79 1758.83 1174.57 1737.82 1210.68 1711.03 1252.13 1708.6 1255.18 1706.47 1258.53 1704.64 1262.18 1702.81 1265.84 1700.68 1269.5 1698.25 1273.16 1716.51 1251.82 1735.54 1230.03 1755.33 1207.79 1775.11 1185.54 1794.75 1165.12 1814.23 1146.53 1833.71 1127.94 1852.59 1112.86 1870.85 1101.28 1889.12 1089.7 1905.86 1083.91 1921.08 1083.91 1940.56 1083.91 1950.31 1095.79 1950.31 1119.56 1950.31 1134.19 1945.74 1152.47 1936.61 1174.42 1927.47 1196.36 1913.47 1219.52 1894.6 1243.9 1883.03 1259.14 1868.57 1275.44 1851.22 1292.81 1833.87 1310.18 1814.99 1326.64 1794.6 1342.18 1774.2 1357.72 1753.35 1370.37 1732.04 1380.12 1710.73 1389.88 1690.03 1394.75 1669.94 1394.75 1653.5 1394.75 1643.76 1391.7 1640.71 1385.61 1639.49 1383.78 1639.34 1382.26 1640.26 1381.04 1641.17 1379.82 1641.93 1379.21 1642.54 1379.21 1642.54 1379.21 1644.06 1379.51 1647.1 1380.12 1650.15 1380.73 1653.8 1381.04 1658.06 1381.04 1672.68 1381.04 1689.42 1375.86 1708.29 1365.5 1727.17 1355.13 1747.11 1341.12 1768.11 1323.44 1789.12 1305.76 1809.06 1285.96 1827.93 1264.01 1848.63 1240.85 1865.98 1217.84 1879.98 1194.99 1893.99 1172.13 1903.12 1153.39 1907.38 1138.76 1908.6 1133.88 1909.21 1129.92 1909.21 1126.88 1909.21 1122 1908.14 1117.89 1906.01 1114.53 1903.88 1111.18 1899.77 1110.11 1893.68 1111.33 1878.46 1114.99 1860.2 1125.66 1838.89 1143.33 1817.58 1161.01 1795.36 1182.04 1772.22 1206.42 1749.08 1230.8 1727.01 1255.33 1706.01 1280.01 1685 1304.7 1666.59 1326.18 1650.76 1344.47 1628.23 1378.6 1602.51 1413.8 1573.59 1450.06 1544.67 1486.33 1513.62 1518.63 1480.44 1546.97 1447.25 1575.32 1412.4 1594.97 1375.87 1605.94 1364.3 1610.21 1347.56 1612.34 1325.64 1612.34 1309.2 1612.34 1295.5 1610.51 1284.54 1606.86 1279.67 1604.42 1274.65 1601.07 1269.47 1596.8 1264.3 1592.53 1260.8 1587.05 1258.97 1580.34 1265.67 1585.83 1273.28 1589.94 1281.8 1592.69 1290.33 1595.43 1300.68 1596.5 1312.85 1595.89 1348.17 1595.89 1381.19 1586.13 1411.94 1566.63 1442.69 1547.13 1471.45 1521.68 1498.24 1490.29 1525.03 1458.9 1549.99 1425.53 1573.13 1390.18 1610.27 1334.72 1645.58 1278.49 1679.07 1221.5 1712.55 1164.51 1747.56 1109.5 1784.09 1056.48ZM2169.07 994.309C2180.64 994.309 2186.43 999.186 2186.43 1008.94 2186.43 1018.08 2182.17 1026.61 2173.64 1034.54 2165.12 1042.46 2155.98 1046.73 2146.24 1047.34 2134.07 1047.34 2127.98 1042.46 2127.98 1032.71 2127.98 1029.66 2128.89 1026.31 2130.72 1022.65 2133.76 1015.34 2139.09 1008.78 2146.7 1002.99 2154.31 997.204 2161.77 994.309 2169.07 994.309ZM2479.03 913.855C2493.65 913.855 2506.13 915.988 2516.48 920.255 2521.35 922.693 2526.22 925.893 2531.09 929.855 2535.96 933.816 2539.31 939.454 2541.13 946.768 2534.44 941.283 2526.83 937.168 2518.3 934.426 2509.78 931.683 2499.43 930.311 2487.25 930.311 2455.59 930.311 2425.15 940.673 2395.93 961.396 2366.7 982.119 2337.63 1008.78 2308.71 1041.39 2279.79 1074 2249.5 1108.59 2217.84 1145.16 2205.67 1159.18 2192.27 1176.55 2177.66 1197.27 2163.05 1218 2149.19 1238.72 2136.11 1259.44 2123.02 1280.17 2112.51 1297.84 2104.6 1312.47 2100.34 1319.17 2097.14 1326.33 2095.01 1333.95 2092.88 1341.57 2091.81 1347.82 2091.81 1352.7 2091.81 1367.32 2097.29 1374.64 2108.25 1374.64 2119.82 1374.64 2132.76 1369.15 2147.06 1358.18 2161.37 1347.21 2175.07 1335.02 2188.16 1321.61 2194.71 1314.91 2200.45 1308.89 2205.4 1303.55L2208.01 1300.63 2212.69 1288.7C2222.74 1265.54 2236.29 1242.07 2253.33 1218.3 2270.38 1194.53 2289.56 1172.44 2310.87 1152.02 2332.18 1131.6 2353.94 1115.14 2376.17 1102.65 2398.39 1090.15 2419.85 1083.91 2440.55 1083.91 2455.77 1083.91 2466.73 1087.87 2473.43 1095.79 2480.13 1103.71 2483.47 1114.08 2483.47 1126.88 2483.47 1143.94 2478.6 1164.21 2468.86 1187.67 2459.12 1211.14 2445.88 1234.91 2429.13 1258.99 2412.39 1283.06 2393.82 1305.46 2373.43 1326.18 2353.03 1346.91 2331.87 1363.67 2309.95 1376.47 2288.04 1389.27 2267.03 1395.67 2246.94 1395.67 2229.28 1395.67 2216.65 1391.25 2209.04 1382.41 2201.43 1373.57 2197.62 1362.45 2197.62 1349.04 2197.62 1344.77 2197.94 1340.32 2198.57 1335.67L2200.17 1327.42 2199.95 1327.67C2182.42 1346.18 2166.01 1360.92 2150.72 1371.89 2130.32 1386.52 2111.29 1393.84 2093.64 1393.84 2063.2 1393.84 2047.98 1379.82 2047.98 1351.78 2047.98 1347.21 2048.51 1342.26 2049.57 1336.93L2051.16 1331.27 2039.28 1343.67C2028.85 1354.1 2019 1363.06 2009.71 1370.52 1991.14 1385.46 1970.59 1392.92 1948.07 1392.92 1931.63 1392.92 1919.91 1388.5 1912.91 1379.67 1905.91 1370.83 1902.4 1359.7 1902.4 1346.3 1902.4 1328.62 1907.73 1309.57 1918.39 1289.16 1929.04 1268.74 1942.28 1248.32 1958.11 1227.9 1973.94 1207.48 1990.08 1188.28 2006.52 1170.3 2022.95 1152.32 2037.26 1137.54 2049.44 1125.96 2061.01 1114.38 2072.88 1105.85 2085.06 1100.36 2097.23 1094.88 2107.73 1091.07 2116.56 1088.93 2125.39 1086.8 2129.8 1085.73 2129.8 1085.73 2116.41 1100.97 2098.15 1122.61 2075.01 1150.65 2051.87 1178.68 2029.04 1208.55 2006.52 1240.24 2004.69 1242.68 2000.43 1248.78 1993.73 1258.53 1987.03 1268.28 1979.57 1279.56 1971.35 1292.36 1963.14 1305.15 1956.13 1317.65 1950.35 1329.84 1944.57 1342.03 1941.67 1351.78 1941.67 1359.1 1941.67 1370.68 1947.76 1376.47 1959.94 1376.47 1969.07 1376.47 1978.97 1373.11 1989.62 1366.41 2000.27 1359.7 2011.08 1351.48 2022.04 1341.72 2033 1331.97 2042.89 1322.37 2051.72 1312.93L2062.13 1301.49 2063.5 1298.53C2067.46 1290.45 2072.33 1281.38 2078.11 1271.33 2093.94 1243.9 2116.32 1211.6 2145.24 1174.42 2174.16 1137.24 2205.06 1100.97 2237.93 1065.62 2266.55 1033.32 2297.75 1003.6 2331.54 976.481 2365.33 949.358 2400.49 930.616 2437.02 920.255 2442.5 918.426 2448.9 916.902 2456.2 915.684 2463.51 914.465 2471.12 913.855 2479.03 913.855ZM1682.25 886.428C1662.77 886.428 1639.94 892.522 1613.76 904.712 1587.58 916.902 1561.09 935.492 1534.3 960.482 1517.26 976.329 1502.34 994.157 1489.55 1013.97 1476.77 1033.77 1467.03 1052.21 1460.33 1069.28L1466.72 1069.28C1497.77 1069.28 1528.37 1065.93 1558.5 1059.22 1588.64 1052.52 1616.5 1043.07 1642.07 1030.88 1667.64 1018.69 1689.1 1004.06 1706.45 986.995 1723.8 969.929 1734.91 951.035 1739.78 930.311 1740.39 927.874 1740.7 924.522 1740.7 920.255 1740.7 911.113 1736.74 903.189 1728.83 896.484 1720.91 889.78 1705.39 886.428 1682.25 886.428ZM1339.78 859C1342.82 859 1346.02 859 1349.37 859 1352.72 859 1355.91 859.305 1358.96 859.914 1372.96 861.133 1388.33 865.552 1405.08 873.171 1421.82 880.79 1436.28 891.913 1448.46 906.541 1452.11 910.808 1453.94 913.855 1453.94 915.684 1453.94 916.902 1453.33 917.512 1452.11 917.512 1450.89 917.512 1447.85 915.684 1442.98 912.027 1421.67 889.475 1397.31 877.285 1369.92 875.457 1367.48 874.847 1364.74 874.543 1361.7 874.543 1358.65 874.543 1355.3 874.543 1351.65 874.543 1337.65 874.543 1322.73 877.742 1306.9 884.142 1291.07 890.542 1279.5 903.494 1272.2 922.998 1269.76 929.093 1267.94 935.188 1266.72 941.283 1265.5 947.378 1264.89 953.168 1264.89 958.653 1264.89 979.376 1272.5 997.357 1287.72 1012.59 1302.94 1027.83 1323.34 1040.02 1348.91 1049.16 1374.48 1058.31 1402.49 1064.4 1432.93 1067.45 1434.76 1042.46 1442.52 1017.93 1456.22 993.852 1469.92 969.777 1487.88 947.835 1510.1 928.026 1532.32 908.217 1557.29 892.37 1584.99 880.485 1612.69 868.6 1641.46 862.657 1671.29 862.657 1674.34 862.657 1677.68 862.657 1681.34 862.657 1684.99 862.657 1688.64 862.962 1692.3 863.572 1711.78 865.4 1728.67 870.733 1742.98 879.571 1757.29 888.408 1764.44 901.361 1764.44 918.426 1764.44 923.303 1763.53 929.093 1761.7 935.797 1753.79 961.396 1739.18 983.491 1717.87 1002.08 1696.56 1020.67 1671.44 1035.76 1642.52 1047.34 1613.6 1058.92 1583.62 1067.6 1552.57 1073.39 1521.52 1079.18 1492.6 1082.08 1465.81 1082.08L1454.85 1082.08 1450.28 1100.36C1474.03 1099.14 1493.81 1103.11 1509.64 1112.25 1514.52 1115.3 1516.95 1118.65 1516.95 1122.3 1513.91 1129.01 1505.08 1132.36 1490.47 1132.36 1473.42 1132.36 1460.48 1129.62 1451.65 1124.13 1442.82 1118.65 1437.5 1111.94 1435.67 1104.02 1411.32 1107.68 1387.12 1116.51 1363.07 1130.53 1339.02 1144.55 1316.95 1161.92 1296.86 1182.65 1276.76 1203.37 1259.87 1225.92 1246.17 1250.3 1232.47 1274.68 1223.8 1299.06 1220.14 1323.44 1219.53 1328.93 1218.77 1334.41 1217.86 1339.9 1216.95 1345.38 1216.49 1350.56 1216.49 1355.44 1216.49 1373.72 1221.97 1388.5 1232.93 1399.78 1243.89 1411.06 1264.28 1416.69 1294.12 1416.69 1320.91 1416.69 1348.46 1409.99 1376.77 1396.58 1405.08 1383.17 1431.56 1365.65 1456.22 1344.01 1480.88 1322.37 1501.73 1299.06 1518.78 1274.07 1535.82 1249.08 1546.17 1225.31 1549.83 1202.76 1549.83 1201.54 1549.98 1200.17 1550.28 1198.64 1550.59 1197.12 1550.74 1196.05 1550.74 1195.44 1550.74 1187.52 1548.31 1180.97 1543.44 1175.79 1538.56 1170.61 1530.65 1168.02 1519.69 1168.02 1517.26 1168.02 1514.82 1168.17 1512.38 1168.47 1509.95 1168.78 1507.21 1169.24 1504.16 1169.85 1487.12 1172.89 1467.63 1181.73 1445.72 1196.36 1423.8 1210.99 1403.25 1229.12 1384.07 1250.76 1364.89 1272.39 1350.43 1295.4 1340.69 1319.78 1338.26 1321 1336.73 1321.61 1336.13 1321.61 1333.08 1321.61 1332.47 1317.65 1334.3 1309.73 1340.39 1293.27 1350.28 1275.75 1363.98 1257.16 1377.68 1238.57 1393.81 1221.2 1412.38 1205.04 1430.95 1188.89 1451.2 1175.64 1473.11 1165.27 1495.03 1154.91 1517.26 1149.73 1539.78 1149.73 1557.44 1149.73 1570.22 1153.54 1578.14 1161.16 1586.05 1168.78 1590.01 1178.68 1590.01 1190.87 1590.01 1209.16 1582.7 1229.27 1568.09 1251.21 1556.53 1269.5 1540.24 1289 1519.23 1309.73 1498.23 1330.45 1474.64 1350.26 1448.46 1369.15 1422.28 1388.05 1394.88 1403.44 1366.26 1415.32 1337.65 1427.21 1309.64 1433.15 1282.24 1433.15 1245.1 1433.15 1216.95 1424.46 1197.77 1407.09 1178.59 1389.72 1169 1365.8 1169 1335.32 1169 1326.79 1169.91 1317.65 1171.74 1307.9 1176 1281.08 1186.96 1255.63 1204.62 1231.56 1222.27 1207.48 1244.04 1185.69 1269.92 1166.19 1295.79 1146.68 1323.19 1131.14 1352.11 1119.56 1381.03 1107.98 1408.58 1101.89 1434.76 1101.28 1434.15 1098.23 1433.69 1094.88 1433.39 1091.22 1433.08 1087.56 1432.93 1084.21 1432.93 1081.16 1397.01 1078.12 1363.98 1071.11 1333.84 1060.14 1303.71 1049.16 1279.66 1034.69 1261.7 1016.71 1243.73 998.728 1234.75 977.243 1234.75 952.254 1234.75 940.064 1236.89 928.483 1241.15 917.512 1249.67 894.351 1263.52 878.809 1282.7 870.885 1301.88 862.962 1320.91 859 1339.78 859Z" fill="#FFFFFF" fill-rule="evenodd"/>
    <path d="M1750.05 1528.32C1745.22 1528.32 1742.15 1529.57 1740.85 1532.08 1740.94 1536.91 1744.47 1539.32 1751.44 1539.32 1758.41 1539.32 1762.74 1536.86 1764.41 1531.94 1760.04 1529.52 1755.25 1528.32 1750.05 1528.32ZM2104.11 1522.88C2101.79 1522.88 2100.21 1524 2099.37 1526.22 2099.46 1528.36 2100.86 1530.36 2103.55 1532.22 2105.97 1533.98 2108.29 1534.86 2110.52 1534.86 2114.7 1534.86 2118 1533.47 2120.42 1530.68 2114.38 1525.48 2108.94 1522.88 2104.11 1522.88ZM1886.04 1522.74C1883.16 1522.74 1881.34 1523.81 1880.6 1525.95 1880.69 1528.18 1882.09 1530.22 1884.78 1532.08 1887.2 1533.75 1889.61 1534.58 1892.03 1534.58 1896.12 1534.58 1899.28 1533.19 1901.51 1530.4 1895.56 1525.3 1890.4 1522.74 1886.04 1522.74ZM2208.87 1474.54C2201.62 1475.93 2195.21 1479.6 2189.63 1485.54 2183.77 1491.86 2180.85 1498.59 2180.85 1505.74 2180.85 1514.48 2182.33 1520 2185.31 1522.32L2185.73 1522.32C2188.79 1522.42 2193.53 1515.4 2199.95 1501.29 2206.08 1487.82 2209.05 1479.09 2208.87 1475.09ZM1904.86 1471.75C1911.08 1471.75 1914.94 1475.37 1916.43 1482.62L1924.65 1479.97C1930.97 1481.36 1934.13 1483.64 1934.13 1486.8 1934.13 1490.7 1928.65 1494.46 1917.68 1498.08 1918.43 1506.81 1918.66 1514.2 1918.38 1520.23 1922.84 1522.74 1925.91 1524.55 1927.58 1525.67 1930.93 1527.9 1933.57 1530.27 1935.53 1532.77 1935.99 1534.72 1936.22 1536.58 1936.22 1538.35 1936.22 1544.1 1934.41 1546.98 1930.79 1546.98 1929.39 1546.98 1924.42 1544.01 1915.87 1538.07 1912.06 1541.6 1909.09 1543.97 1906.95 1545.17 1903.69 1547.12 1900.07 1548.1 1896.07 1548.1 1891.89 1548.1 1887.8 1546.94 1883.81 1544.62 1879.53 1542.29 1876.56 1539.32 1874.88 1535.7 1873.77 1533.47 1873.21 1529.94 1873.21 1525.11 1873.21 1521.58 1874.49 1518.59 1877.05 1516.12 1879.6 1513.66 1882.6 1512.43 1886.04 1512.43 1890.4 1512.43 1896.26 1513.78 1903.6 1516.47 1903.97 1514.15 1904.16 1511.64 1904.16 1508.95 1904.16 1506.63 1904.02 1504.07 1903.74 1501.29 1900.4 1502.03 1897 1502.77 1893.56 1503.52 1888.36 1504.63 1885.2 1505.19 1884.09 1505.19 1881.85 1505.19 1879.86 1504.12 1878.09 1501.98 1876.32 1499.85 1875.44 1497.62 1875.44 1495.3 1875.44 1491.95 1876.56 1488.98 1878.79 1486.38L1879.76 1487.35C1880.14 1489.12 1881.11 1490.37 1882.69 1491.12 1889.01 1490.28 1895.98 1488.42 1903.6 1485.54 1903.69 1482.38 1903.74 1480.81 1903.74 1480.81 1903.74 1478.02 1902.07 1475.65 1898.72 1473.7L1899 1472.45C1902.9 1471.98 1904.86 1471.75 1904.86 1471.75ZM2226.15 1459.77C2237.4 1459.77 2247.02 1463.76 2255.01 1471.75 2263 1479.74 2267 1489.35 2267 1500.59 2267 1512.01 2263.51 1522.18 2256.54 1531.1 2249.11 1540.76 2239.86 1545.59 2228.8 1545.59 2225.83 1545.59 2222.48 1545.17 2218.77 1544.34 2227.69 1538.3 2234.8 1531.52 2240.09 1524 2246.51 1515.08 2249.71 1505.98 2249.71 1496.69 2249.71 1489.91 2247.41 1484.27 2242.81 1479.76 2238.21 1475.26 2232.52 1473 2225.74 1473 2223.97 1473 2222.11 1473.14 2220.16 1473.42 2220.62 1474.72 2220.86 1476.21 2220.86 1477.88 2220.86 1483.92 2218.35 1492.65 2213.33 1504.07 2208.96 1514.1 2204.55 1522.23 2200.09 1528.45 2195.35 1535.05 2190.05 1539.37 2184.19 1541.41 2181.41 1540.95 2179.41 1539.04 2178.2 1535.7 2177.36 1532.73 2176.57 1529.8 2175.83 1526.92 2174.71 1524.6 2173.18 1521.02 2171.23 1516.19 2170.76 1514.52 2170.53 1512.43 2170.53 1509.92 2170.53 1502.59 2171.65 1496.46 2173.88 1491.53 2179.45 1479.09 2188.61 1470.03 2201.34 1464.37 2208.22 1461.3 2216.49 1459.77 2226.15 1459.77ZM2067.58 1456.15C2071.67 1459.68 2074.42 1463.76 2075.81 1468.41 2076.83 1471.84 2077.34 1476.81 2077.34 1483.31 2077.34 1487.21 2077.02 1492.42 2076.37 1498.92 2075.44 1506.91 2074.93 1512.11 2074.83 1514.52L2082.08 1511.04C2080.32 1515.87 2078.97 1520.19 2078.04 1524 2076.92 1529.01 2075.81 1534.03 2074.69 1539.04 2072.74 1547.12 2071.16 1551.35 2069.95 1551.72 2069.58 1551.91 2068.89 1552 2067.86 1552 2064.05 1552 2061.31 1548.7 2059.64 1542.11 2058.62 1537.93 2058.1 1533.1 2058.1 1527.62 2058.1 1525.95 2058.71 1520.98 2059.92 1512.71 2060.29 1509.18 2061.03 1503.89 2062.15 1496.83 2063.17 1491.72 2064.19 1486.66 2065.21 1481.64 2066.33 1475.7 2066.89 1470.59 2066.89 1466.32 2066.89 1463.53 2066.75 1460.33 2066.47 1456.7ZM1847.84 1455.87C1855 1461.25 1858.57 1468.31 1858.57 1477.04 1858.57 1481.41 1858.02 1487.63 1856.9 1495.71 1855.79 1504.17 1855.18 1510.34 1855.09 1514.24L1862.2 1510.76C1861.27 1513.45 1860.01 1517.68 1858.43 1523.44 1856.85 1531.24 1855.83 1535.93 1855.37 1537.51 1853.6 1544.94 1852.16 1549.07 1851.05 1549.91 1842.59 1549.17 1838.36 1541.32 1838.36 1526.36 1838.36 1524.23 1838.96 1519.54 1840.17 1512.29 1840.54 1508.86 1841.24 1503.61 1842.26 1496.55 1843.38 1491.44 1844.45 1486.38 1845.47 1481.36 1846.58 1475.42 1847.14 1470.31 1847.14 1466.04 1847.14 1463.34 1847 1460.14 1846.72 1456.42ZM1911.83 1453.64C1914.89 1453.64 1917.91 1454.43 1920.89 1456.01 1923.86 1457.59 1926.05 1459.63 1927.44 1462.14 1927.07 1463.9 1926.32 1465.16 1925.21 1465.9 1923.72 1466.83 1919.59 1467.85 1912.8 1468.96 1906.67 1469.89 1902.21 1470.36 1899.42 1470.36 1889.47 1470.36 1882.92 1468.03 1879.76 1463.39 1880.04 1463.11 1884.36 1461.58 1892.73 1458.79 1901.09 1456.01 1905.88 1454.47 1907.09 1454.2 1908.85 1453.82 1910.43 1453.64 1911.83 1453.64ZM2136.59 1453.36 2137.98 1453.36C2138.73 1453.36 2141.12 1454.01 2145.16 1455.31 2149.21 1456.61 2152.67 1458.38 2155.55 1460.6 2159.27 1463.58 2161.13 1466.87 2161.13 1470.5 2161.13 1474.12 2159.69 1475.93 2156.8 1475.93 2153.46 1475.93 2150.3 1473.75 2147.32 1469.38 2145.09 1465.85 2142.91 1462.32 2140.77 1458.79 2140.31 1458.24 2138.91 1456.42 2136.59 1453.36ZM2123.07 1451.27C2123.16 1451.27 2124.69 1451.78 2127.67 1452.8 2134.45 1455.22 2137.84 1457.77 2137.84 1460.46 2137.84 1460.74 2137.66 1464.23 2137.29 1470.91 2145.84 1473.24 2150.44 1476.95 2151.09 1482.06 2149.79 1484.75 2145.19 1486.75 2137.29 1488.05 2137.19 1489.35 2137.24 1494.65 2137.43 1503.93 2137.52 1509.04 2137.47 1514.57 2137.29 1520.51 2141.47 1522.93 2144.54 1524.79 2146.49 1526.09 2150.67 1528.87 2153.23 1531.19 2154.16 1533.05 2154.81 1534.26 2155.13 1536.12 2155.13 1538.62 2155.13 1544.29 2153.27 1547.12 2149.55 1547.12 2148.25 1547.12 2145.74 1545.87 2142.03 1543.36 2139.52 1541.69 2137.01 1540.02 2134.5 1538.35 2130.78 1541.88 2127.85 1544.29 2125.72 1545.59 2122.46 1547.45 2118.84 1548.38 2114.84 1548.38 2111.96 1548.38 2108.38 1547.45 2104.11 1545.59 2096.02 1542.06 2091.98 1535.33 2091.98 1525.39 2091.98 1521.86 2093.26 1518.86 2095.81 1516.4 2098.37 1513.94 2101.41 1512.71 2104.95 1512.71 2109.41 1512.71 2115.21 1514.06 2122.37 1516.75L2123.21 1489.58C2114.94 1490.05 2102.25 1492.04 2085.15 1495.57L2083.76 1494.88C2085.52 1491.35 2087.43 1488.56 2089.47 1486.52 2095.7 1480.57 2106.94 1475.88 2123.21 1472.45L2123.21 1466.87C2123.21 1463.62 2120.84 1460.19 2116.1 1456.56L2116.1 1455.03C2116.19 1454.94 2117.35 1454.15 2119.58 1452.66 2121.07 1451.73 2122.23 1451.27 2123.07 1451.27ZM2008.04 1448.34C2009.71 1448.34 2012.5 1449.16 2016.4 1450.78 2020.31 1452.41 2023.02 1453.82 2024.56 1455.03 2026.09 1456.24 2026.9 1457.77 2027 1459.63L2025.04 1462C2017.8 1465.53 2011.15 1470.59 2005.11 1477.18 2001.21 1481.36 1996.09 1488 1989.78 1497.11 1997.58 1494.13 2004.55 1492.65 2010.69 1492.65 2019.42 1492.65 2026.53 1494.55 2032.01 1498.36 2038.33 1502.73 2041.49 1509.09 2041.49 1517.45 2041.49 1518.75 2041.45 1519.49 2041.36 1519.68 2038.38 1539.55 2024.39 1549.49 1999.39 1549.49 1994.65 1549.49 1990.47 1548.84 1986.85 1547.54L1985.45 1546.43C1994.47 1543.64 2002.37 1539.83 2009.15 1535 2018.26 1528.5 2022.81 1521.58 2022.81 1514.24 2022.81 1511.09 2021.49 1508.55 2018.84 1506.65 2016.19 1504.75 2013.29 1503.79 2010.13 1503.79 2009.48 1503.79 2008.83 1503.84 2008.18 1503.93 1998.98 1505.7 1991.54 1508.11 1985.87 1511.18 1981.5 1513.5 1975.28 1518.1 1967.19 1524.97 1965.05 1526.74 1962.13 1529.48 1958.41 1533.19L1956.04 1533.47C1953.34 1532.63 1952 1529.8 1952 1524.97 1952 1522.65 1952.32 1520.37 1952.97 1518.14 1953.25 1517.31 1954.37 1516.19 1956.32 1514.8 1958.73 1512.94 1960.08 1511.92 1960.36 1511.74 1962.96 1508.58 1966.91 1503.93 1972.21 1497.8 1977.23 1492.32 1980.76 1488.42 1982.8 1486.1 1987.27 1480.9 1990.38 1476.81 1992.15 1473.84L1983.36 1476.49C1977.97 1475.09 1971.37 1469.43 1963.57 1459.49L1963.98 1458.79 1973.6 1460.46C1978.81 1459.16 1982.94 1458 1986.01 1456.98 1986.85 1456.7 1990.7 1455.08 1997.58 1452.11 2003.16 1449.6 2006.64 1448.34 2008.04 1448.34ZM2145.93 1447.37C2162.19 1447.37 2170.23 1451.59 2170.05 1460.05L2169.91 1460.88C2168.89 1463.11 2167.4 1464.23 2165.45 1464.23 2162.94 1464.23 2159.5 1461.86 2155.13 1457.12 2149.93 1451.73 2146.49 1448.62 2144.82 1447.79 2145.19 1447.6 2145.56 1447.46 2145.93 1447.37ZM1768.73 1445C1770.4 1445 1772.77 1445.72 1775.84 1447.16 1778.91 1448.6 1780.86 1450.02 1781.7 1451.41 1781.88 1451.78 1782.02 1452.99 1782.11 1455.03L1782.53 1461.3C1783.74 1461.12 1784.9 1461.02 1786.02 1461.02 1788.99 1461.02 1792.1 1461.86 1795.36 1463.53 1798.98 1465.48 1801.07 1467.76 1801.63 1470.36 1800.61 1473.05 1797.73 1475.28 1792.99 1477.04 1789.08 1478.16 1785.23 1479.27 1781.42 1480.39L1781.42 1486.52C1784.58 1485.68 1786.48 1485.26 1787.13 1485.26 1789.64 1485.26 1792.48 1485.82 1795.64 1486.94 1799.63 1488.33 1801.63 1490 1801.63 1491.95 1801.63 1495.2 1798.7 1497.85 1792.85 1499.89 1788.67 1501.29 1784.48 1502.63 1780.3 1503.93L1780.02 1520.37C1787.55 1522.51 1791.83 1523.76 1792.85 1524.14 1797.59 1525.99 1801.31 1528.27 1804 1530.96 1806.88 1533.93 1808.65 1536.54 1809.3 1538.76 1809.3 1539.04 1809.3 1539.69 1809.3 1540.71 1809.3 1544.89 1807.44 1546.98 1803.72 1546.98 1800.84 1546.98 1796.75 1545.36 1791.45 1542.11 1785.13 1538.21 1780.95 1535.98 1778.91 1535.42 1777.51 1540.62 1774.45 1544.76 1769.71 1547.82 1765.34 1550.61 1760.37 1552 1754.79 1552 1743.64 1552 1735.97 1548.66 1731.79 1541.97 1729.93 1539.09 1729 1536.26 1729 1533.47 1729 1522.7 1736.2 1517.31 1750.61 1517.31 1755.16 1517.31 1760.41 1517.87 1766.36 1518.98 1766.83 1515.36 1767.01 1512.15 1766.92 1509.37L1766.92 1506.3C1758.74 1508.62 1753.54 1509.79 1751.31 1509.79 1748.52 1509.79 1745.54 1507.93 1742.38 1504.21 1739.97 1501.24 1738.06 1498.08 1736.67 1494.74L1736.95 1494.04C1740.01 1494.88 1743.13 1495.3 1746.29 1495.3 1750 1495.3 1756.88 1493.44 1766.92 1489.72L1766.92 1482.62 1765.11 1482.76C1761.11 1482.85 1757.07 1482.01 1752.98 1480.25 1751.31 1479.41 1749.26 1478.21 1746.84 1476.63 1743.96 1474.68 1742.24 1473.14 1741.69 1472.03 1741.69 1472.03 1741.45 1471.52 1740.99 1470.5 1752.79 1468.82 1761.62 1466.64 1767.48 1463.95L1767.06 1455.31C1765.38 1452.9 1763.43 1451.22 1761.2 1450.29L1761.2 1448.9C1765.48 1446.3 1767.99 1445 1768.73 1445Z" fill="#FFFFFF" fill-rule="evenodd"/>
    <path d="M3002.55 1488.62C3009.33 1488.62 3014.26 1489.08 3017.32 1490 3024.48 1492.22 3028.06 1495.96 3028.06 1501.23 3028.06 1503.36 3027.15 1504.95 3025.34 1506.01 3023.53 1507.08 3021.51 1507.56 3019.28 1507.47L3018.44 1507.47C3015.65 1507.38 3011.49 1506.87 3005.96 1505.94 3000.44 1505.02 2996 1504.56 2992.65 1504.56 2985.5 1504.56 2975.46 1505.25 2962.54 1506.64 2947.21 1508.21 2937.83 1510.01 2934.39 1512.04 2928.91 1510.01 2922.68 1504.79 2915.71 1496.38L2915.71 1494.3C2921.19 1495.04 2923.93 1495.41 2923.93 1495.41 2923.75 1495.41 2926.68 1495.09 2932.72 1494.44 2938.76 1493.79 2945.96 1493.05 2954.32 1492.22 2979.97 1489.82 2996.04 1488.62 3002.55 1488.62ZM2883.63 1479.47C2866.16 1479.47 2849.25 1481.64 2832.89 1485.98 2835.12 1498.46 2836.56 1510.7 2837.21 1522.72 2849.76 1520.41 2863.05 1518.65 2877.08 1517.45 2881.45 1499.24 2883.63 1486.58 2883.63 1479.47ZM2884.47 1461.86C2886.98 1461.86 2889.65 1462.37 2892.48 1463.39 2895.32 1464.4 2898.68 1466.25 2902.59 1468.93 2907.42 1472.17 2909.84 1474.8 2909.84 1476.83 2909.84 1477.94 2909.28 1479.24 2908.16 1480.71 2907.14 1481.82 2906.16 1482.98 2905.24 1484.18 2903.1 1487.32 2899.57 1499.24 2894.64 1519.95 2895.76 1522.72 2896.31 1525.03 2896.31 1526.88 2896.31 1529.37 2894.83 1531.4 2891.85 1532.98 2888.14 1532.7 2884.84 1532.56 2881.96 1532.56 2857.98 1532.56 2842.51 1534.87 2835.54 1539.49L2835.12 1539.49C2832.15 1539.58 2829.66 1538.87 2827.67 1537.34 2825.67 1535.82 2824.07 1530.99 2822.86 1522.86 2822.3 1517.59 2821.7 1512.32 2821.05 1507.05 2820.58 1502.52 2819.56 1495.82 2817.98 1486.95 2817.14 1483.07 2814.59 1477.2 2810.31 1469.35L2811.01 1467.82C2811.47 1467.73 2811.94 1467.68 2812.4 1467.68 2814.26 1467.68 2816.93 1468.31 2820.42 1469.56 2823.9 1470.8 2826.62 1471.43 2828.57 1471.43 2829.87 1471.43 2832.29 1471.1 2835.82 1470.46 2840.75 1469.44 2843.25 1468.93 2843.35 1468.93 2849.85 1467.82 2859.61 1466.21 2872.62 1464.08 2872.9 1463.99 2874.94 1463.53 2878.75 1462.69 2881.63 1462.14 2883.54 1461.86 2884.47 1461.86ZM2654.11 1459.64C2657.18 1459.64 2660.71 1460.66 2664.71 1462.69 2669.26 1464.91 2671.54 1467.41 2671.54 1470.18 2670.14 1472.95 2667.03 1474.99 2662.2 1476.28 2660.34 1476.74 2656.44 1477.34 2650.49 1478.08 2648.07 1478.36 2645.33 1478.77 2642.26 1479.33 2643.56 1480.53 2644.82 1481.69 2646.03 1482.79 2647.42 1484.18 2648.35 1485.66 2648.82 1487.23 2646.58 1487.78 2645.05 1492.22 2644.22 1500.54 2644.03 1505.44 2643.84 1510.33 2643.66 1515.23 2645.61 1514.77 2649.44 1514.1 2655.16 1513.22 2660.87 1512.34 2664.47 1511.9 2665.96 1511.9 2670.61 1511.9 2676.14 1513.85 2682.55 1517.73 2689.61 1521.89 2693.14 1526.14 2693.14 1530.48 2693.14 1534.36 2690.68 1536.3 2685.75 1536.3 2685.38 1536.3 2682.73 1535.61 2677.81 1534.22 2672.23 1532.74 2669.17 1531.96 2668.61 1531.87 2663.96 1530.85 2656.06 1530.34 2644.91 1530.34 2638.41 1530.34 2632.51 1530.78 2627.21 1531.66 2621.91 1532.54 2614.62 1534.55 2605.33 1537.69 2604.68 1537.87 2603.51 1538.57 2601.84 1539.77 2600.17 1540.97 2598.91 1541.57 2598.08 1541.57 2596.22 1541.57 2593.57 1539.21 2590.13 1534.5 2587.53 1531.08 2585.49 1527.89 2584 1524.94L2584.28 1523.55C2585.67 1523.55 2587.67 1523.8 2590.27 1524.31 2592.87 1524.82 2594.87 1525.07 2596.27 1525.07 2597.2 1525.07 2599.84 1524.43 2604.21 1523.13 2609.51 1521.56 2612.39 1520.73 2612.85 1520.64 2618.61 1519.25 2624 1518.19 2629.02 1517.45 2629.39 1510.7 2629.58 1504.84 2629.58 1499.84 2629.58 1490.51 2628.84 1485.01 2627.35 1483.35 2625.21 1483.44 2621.82 1484.13 2617.17 1485.43 2614.01 1484.78 2610.67 1482.56 2607.14 1478.77 2604.26 1475.63 2601.93 1472.31 2600.17 1468.79L2601.28 1467.96C2606.21 1469.63 2609.42 1470.46 2610.9 1470.46 2615.36 1470.46 2622.61 1468.65 2632.65 1465.05 2642.68 1461.45 2649.84 1459.64 2654.11 1459.64ZM3111.57 1457.98 3113.1 1457.98C3118.03 1457.98 3123.05 1459.41 3128.16 1462.28 3134.2 1465.51 3137.22 1469.39 3137.22 1473.92 3137.22 1477.25 3135.92 1478.91 3133.32 1478.91 3130.71 1478.91 3128.02 1477.62 3125.23 1475.03 3123.65 1473.46 3121.37 1470.6 3118.4 1466.44 3115.43 1462.28 3113.15 1459.46 3111.57 1457.98ZM2783.62 1457.15C2782.69 1457.15 2781.6 1457.8 2780.35 1459.09 2779.09 1460.38 2778.19 1461.54 2777.63 1462.56 2778.65 1465.7 2780.93 1467.27 2784.46 1467.27 2786.88 1467.27 2788.92 1465.65 2790.59 1462.42 2790.04 1459 2788.13 1457.33 2784.88 1457.43 2784.51 1457.24 2784.09 1457.15 2783.62 1457.15ZM2718.81 1451.6C2720.67 1451.6 2723.39 1452.71 2726.96 1454.93 2730.54 1457.15 2732.33 1459.04 2732.33 1460.61 2732.33 1461.82 2732 1463.34 2731.35 1465.19 2730.52 1467.59 2730.01 1469.16 2729.82 1469.9 2729.36 1472.58 2729.12 1477.67 2729.12 1485.15 2740 1483.4 2747.29 1481.55 2751.01 1479.61 2753.52 1478.22 2756.02 1476.79 2758.53 1475.31 2761.51 1473.83 2764.25 1473.09 2766.76 1473.09 2768.99 1473.09 2771.78 1473.74 2775.12 1475.03 2778.84 1476.51 2781.07 1478.08 2781.81 1479.74 2781.9 1482.98 2780 1485.66 2776.1 1487.78 2771.64 1490.37 2764.16 1492.91 2753.66 1495.41 2745.29 1497.35 2737.3 1498.87 2729.68 1499.98L2728.01 1498.87C2727.64 1504.23 2727.45 1508.67 2727.45 1512.18 2727.45 1522.07 2728.84 1527.94 2731.63 1529.79 2733.12 1530.8 2735.91 1531.31 2740 1531.31 2744.64 1531.31 2750.17 1530.62 2756.58 1529.23 2756.86 1529.14 2762.25 1527.71 2772.75 1524.94 2773.68 1524.66 2774.84 1524.52 2776.24 1524.52 2780.42 1524.52 2784.23 1525.17 2787.67 1526.46 2792.31 1528.12 2794.64 1530.71 2794.64 1534.22 2794.64 1535.33 2794.45 1536.53 2794.08 1537.83 2788.87 1541.15 2781.67 1543.74 2772.47 1545.59 2764.57 1547.25 2756.81 1548.09 2749.2 1548.09 2742.88 1548.09 2736.7 1547.07 2730.66 1545.04 2724.06 1542.91 2719.46 1539.63 2716.86 1535.19 2714.53 1531.31 2713.37 1525.67 2713.37 1518.28 2713.37 1514.4 2713.56 1509.32 2713.93 1503.03 2714.39 1494.99 2714.67 1489.91 2714.77 1487.78 2714.95 1479.74 2715.05 1473.6 2715.05 1469.35 2715.05 1467.5 2715.05 1466.07 2715.05 1465.05 2713.84 1463.02 2711.56 1460.66 2708.22 1457.98L2708.08 1456.73C2708.91 1456.46 2710.72 1455.49 2713.51 1453.82 2715.93 1452.34 2717.69 1451.6 2718.81 1451.6ZM3121.89 1450.77C3138.05 1450.77 3146.09 1455.07 3146 1463.66L3146 1464.08C3144.88 1466.39 3143.35 1467.55 3141.4 1467.55 3138.89 1467.55 3135.45 1465.19 3131.08 1460.48 3125.88 1455.02 3122.44 1451.88 3120.77 1451.05 3121.14 1450.96 3121.51 1450.86 3121.89 1450.77ZM3071.15 1450.22C3072.26 1450.5 3074.73 1450.96 3078.54 1451.6 3083.37 1452.44 3086.11 1453.04 3086.76 1453.41 3088.43 1454.42 3089.36 1457.01 3089.55 1461.17 3090.48 1461.45 3091.55 1461.58 3092.75 1461.58 3093.78 1461.58 3095.33 1461.47 3097.42 1461.24 3099.51 1461.01 3101.07 1460.89 3102.09 1460.89 3104.42 1460.89 3107.99 1462.53 3112.83 1465.81 3117.66 1469.09 3120.07 1471.75 3120.07 1473.78 3119.52 1475.26 3118.38 1476.58 3116.66 1477.73 3114.94 1478.89 3114.03 1479.56 3113.94 1479.74 3113.01 1481.78 3111.62 1484.78 3109.76 1488.75 3106.32 1495.87 3102.74 1502.48 3099.03 1508.58 3086.85 1528.72 3075.61 1541.43 3065.29 1546.7 3059.44 1549.66 3051.54 1551.09 3041.6 1551L3039.09 1551 3037.56 1550.44C3049.26 1544.06 3060.93 1533.11 3072.54 1517.59 3083.04 1503.54 3090.94 1489.45 3096.24 1475.31 3095.77 1473.65 3094.38 1472.17 3092.06 1470.87 3089.36 1469.49 3087.69 1468.28 3087.04 1467.27 3080.91 1478.64 3074.45 1487 3067.66 1492.36 3059.58 1498.83 3049.68 1502.29 3037.97 1502.76L3036.72 1501.92C3050.01 1491.11 3062.55 1477.06 3074.35 1459.78 3073.98 1456.64 3072.91 1453.96 3071.15 1451.74ZM2785.02 1448C2789.57 1448 2793.26 1449.25 2796.1 1451.74 2798.93 1454.24 2800.35 1457.75 2800.35 1462.28 2800.35 1472.26 2795.47 1477.25 2785.71 1477.25 2781.9 1477.25 2778.75 1475.63 2776.24 1472.4 2773.82 1469.44 2772.8 1466.07 2773.17 1462.28L2770.8 1460.34 2770.8 1457.56C2770.8 1456.73 2771.4 1455.53 2772.61 1453.96 2775.68 1449.99 2779.81 1448 2785.02 1448Z" fill="#FFFFFF" fill-rule="evenodd"/>
  </g>
</svg>